<svg width="40" height="41" viewBox="0 0 40 41" fill="none" xmlns="http://www.w3.org/2000/svg">
<path d="M39.0476 39.4049H2.85577C2.60318 39.4049 2.36093 39.3045 2.18231 39.1259C2.0037 38.9473 1.90336 38.7051 1.90336 38.4525C1.90336 38.1999 2.0037 37.9576 2.18231 37.779C2.36093 37.6004 2.60318 37.5 2.85577 37.5H39.0476C39.3002 37.5 39.5424 37.6004 39.721 37.779C39.8997 37.9576 40 38.1999 40 38.4525C40 38.7051 39.8997 38.9473 39.721 39.1259C39.5424 39.3045 39.3002 39.4049 39.0476 39.4049ZM15.5362 35.5933C14.9106 35.5943 14.2909 35.4719 13.7126 35.2329C13.1344 34.994 12.609 34.6433 12.1666 34.2009L1.39286 23.4252C0.500925 22.5314 0 21.3202 0 20.0575C0 18.7948 0.500925 17.5836 1.39286 16.6898L16.2086 1.87397C16.3873 1.69542 16.6295 1.59512 16.882 1.59512C17.1346 1.59512 17.3768 1.69542 17.5554 1.87397L33.7179 18.0365C33.8066 18.1249 33.8769 18.23 33.9249 18.3458C33.973 18.4615 33.9977 18.5855 33.9977 18.7108C33.9977 18.8361 33.973 18.9601 33.9249 19.0758C33.8769 19.1915 33.8066 19.2966 33.7179 19.3851L18.9021 34.2009C18.4605 34.6433 17.9358 34.9941 17.3582 35.2331C16.7805 35.472 16.1614 35.5945 15.5362 35.5933ZM13.5152 32.8542C14.0521 33.3885 14.7787 33.6885 15.5362 33.6885C16.2937 33.6885 17.0204 33.3885 17.5573 32.8542L31.7006 18.7127L16.883 3.895L2.73958 18.0365C2.20428 18.5729 1.90364 19.2997 1.90364 20.0575C1.90364 20.8153 2.20428 21.5421 2.73958 22.0785L13.5152 32.8542ZM35.2379 35.5952C33.9754 35.5937 32.765 35.0915 31.8723 34.1988C30.9796 33.306 30.4774 32.0957 30.4758 30.8331C30.4758 28.5473 33.7902 23.6348 34.455 22.6728C34.8093 22.1566 35.6684 22.1566 36.0208 22.6728C36.6856 23.6348 40 28.5473 40 30.8331C40 33.458 37.8647 35.5952 35.2379 35.5952ZM35.2379 24.9358C33.8664 27.0787 32.3807 29.7931 32.3807 30.8331C32.3807 32.4084 33.6626 33.6904 35.2379 33.6904C36.8132 33.6904 38.0952 32.4084 38.0952 30.8331C38.0952 29.7912 36.6094 27.0768 35.2379 24.9358Z" fill="black"/>
<path d="M32.3616 20.0614H1.02712C0.774527 20.0614 0.532276 19.9611 0.353663 19.7825C0.175051 19.6039 0.074707 19.3616 0.074707 19.109C0.074707 18.8564 0.175051 18.6142 0.353663 18.4356C0.532276 18.2569 0.774527 18.1566 1.02712 18.1566H32.3616C32.6142 18.1566 32.8565 18.2569 33.0351 18.4356C33.2137 18.6142 33.314 18.8564 33.314 19.109C33.314 19.3616 33.2137 19.6039 33.0351 19.7825C32.8565 19.9611 32.6142 20.0614 32.3616 20.0614Z" fill="black"/>
</svg>
