<svg width="480" height="480" viewBox="0 0 480 480" fill="none" xmlns="http://www.w3.org/2000/svg">
<mask id="mask0_2469_1876" style="mask-type:luminance" maskUnits="userSpaceOnUse" x="22" y="0" width="407" height="407">
<path d="M429 0H22V407H429V0Z" fill="white"/>
</mask>
<g mask="url(#mask0_2469_1876)">
<path fill-rule="evenodd" clip-rule="evenodd" d="M293.329 356.291C290.743 359.513 286.249 360.955 282.094 361.93C274.929 363.583 266.959 364.643 260.388 361.76C260.388 366.182 260.35 370.608 260.307 375.03H260.472L261.074 375.04C274.057 375.248 287.001 375.456 299.985 375.624C304.225 375.708 308.511 375.751 312.581 374.606C316.651 373.461 320.509 370.918 322.29 367.102L322.866 366.75C322.44 365.686 321.817 364.71 321.031 363.876C320.714 363.541 320.378 363.224 320.026 362.926C318.666 361.808 317.103 360.966 315.422 360.446C312.501 359.543 309.435 359.377 306.37 359.254C305.696 359.229 305.022 359.204 304.352 359.174C300.664 358.962 296.806 358.496 293.626 356.545L293.329 356.291ZM299.208 362.716C301.109 362.367 303.046 362.259 304.974 362.393H304.975C308.719 362.651 312.349 363.795 315.565 365.731C315.861 365.909 316.246 365.814 316.425 365.517C316.603 365.221 316.507 364.836 316.211 364.657C312.825 362.619 309.003 361.415 305.061 361.143C303.029 361.002 300.986 361.116 298.982 361.483C298.642 361.545 298.416 361.872 298.479 362.212C298.541 362.552 298.867 362.778 299.208 362.716Z" fill="white"/>
<path fill-rule="evenodd" clip-rule="evenodd" d="M200.108 235.492C198.012 243.918 195.898 252.419 192.164 260.297C188.39 268.225 182.794 275.607 175.163 279.973C162.911 287.011 147.521 285.4 133.997 281.245C133.797 281.183 133.597 281.121 133.396 281.058C129.887 279.964 126.239 278.827 122.63 279.549C120.685 279.946 118.875 280.837 117.373 282.135C117.369 282.14 117.36 282.144 117.356 282.148L117.394 282.195L117.416 282.22C114.236 284.849 111.947 288.919 110.081 292.734C107.792 297.453 105.591 302.29 105.324 307.293C105.285 307.958 105.287 308.625 105.329 309.29C105.35 309.633 105.375 309.981 105.418 310.329C105.475 310.928 105.574 311.523 105.714 312.109C106.087 313.797 106.6 314.971 107.33 315.802C107.451 315.94 107.583 316.069 107.724 316.188C109.404 317.639 112.064 317.748 116.355 317.923C117.932 317.988 119.731 318.062 121.782 318.214C170.584 321.86 204.124 311.982 217.563 286.036C221.251 278.956 223.032 271.108 224.558 263.223C224.566 263.24 224.574 263.257 224.581 263.275C224.585 263.285 224.588 263.296 224.592 263.308C226.415 267.649 228.107 271.804 229.675 275.848C229.964 276.59 230.248 277.324 230.528 278.057C230.807 278.79 231.083 279.515 231.354 280.245C231.489 280.602 231.624 280.964 231.758 281.325L231.761 281.334C232.164 282.42 232.558 283.501 232.944 284.577C233.589 286.371 234.212 288.156 234.814 289.932C235.416 291.708 235.992 293.476 236.552 295.253C236.554 295.255 236.556 295.258 236.556 295.261C240.486 307.696 243.48 320.279 246.053 335.516C246.96 340.76 248.08 346.344 250.297 351.135C250.534 351.639 250.776 352.135 251.039 352.619C252.616 355.71 254.959 358.346 257.843 360.275C258.635 360.801 259.472 361.255 260.345 361.632C260.357 361.636 260.374 361.645 260.387 361.649C266.95 364.511 274.903 363.451 282.051 361.801C286.206 360.826 290.742 359.385 293.286 356.163C293.674 355.673 294.015 355.148 294.304 354.594C296.551 350.227 294.812 344.928 293.032 340.307C285.422 320.428 277.879 300.778 270.334 281.119C263.389 263.027 256.442 244.927 249.436 226.635H249.402C246.023 226.487 242.855 226.328 239.686 226.169C236.509 226.01 233.332 225.851 229.943 225.702H229.858L228.671 237.658L207.731 238.548L207.727 238.591L200.931 235.072L200.435 234.817L200.401 234.801L200.181 235.199L200.108 235.492ZM247.606 233.938C247.471 233.619 247.104 233.47 246.785 233.604C246.466 233.739 246.316 234.107 246.451 234.425C262.544 272.554 277.18 311.222 290.36 350.427C290.471 350.755 290.826 350.932 291.154 350.821C291.482 350.711 291.659 350.356 291.548 350.028C278.358 310.793 263.711 272.096 247.606 233.938Z" fill="#171717"/>
<path d="M136.074 215.438C137.685 218.665 139.593 222.099 137.092 225.363C134.675 228.543 130.007 230.239 126.531 231.765C121.998 233.758 117.303 235.361 112.498 236.556C111.268 236.852 98.1256 239.481 98.0408 238.845C96.8588 231.446 95.2308 224.125 93.1653 216.922C97.1505 214.76 101.687 213.785 106.138 212.895C110.59 212.004 115.126 211.114 119.154 208.994C123.182 206.917 126.7 203.398 127.718 198.946C130.474 204.458 133.272 210.012 136.074 215.438Z" fill="white"/>
<path d="M323.18 367.738C323.986 371.087 322.459 374.733 319.873 377.023C317.287 379.312 313.853 380.414 310.419 380.753C306.985 381.093 303.546 380.753 300.112 380.499C298.646 380.389 297.177 380.293 295.707 380.211C295.691 380.212 295.673 380.21 295.657 380.206C285.828 379.655 275.975 379.71 266.153 380.372C264.636 380.44 262.872 380.452 261.681 379.643C261.604 379.587 261.532 379.532 261.46 379.477C261.388 379.422 261.32 379.354 261.257 379.286C261.189 379.221 261.125 379.152 261.066 379.079C261.007 379.007 260.951 378.926 260.896 378.846C260.303 377.955 260.303 376.811 260.303 375.751C260.307 375.509 260.307 375.272 260.307 375.03H260.472C273.657 375.242 286.8 375.454 299.985 375.623C304.225 375.708 308.507 375.751 312.581 374.606C316.655 373.461 320.509 370.918 322.29 367.102L322.866 366.75C322.992 367.072 323.097 367.402 323.18 367.738Z" fill="white"/>
<path d="M261.681 379.643C262.872 380.452 264.636 380.44 266.153 380.372C264.631 380.474 262.868 380.465 261.681 379.643Z" fill="white"/>
<path d="M261.46 379.477C261.532 379.532 261.604 379.587 261.68 379.642C261.605 379.591 261.531 379.535 261.46 379.477Z" fill="white"/>
<path d="M261.065 379.078C261.124 379.151 261.188 379.221 261.256 379.286C261.187 379.222 261.124 379.152 261.065 379.078Z" fill="white"/>
<path d="M252.633 73.5988C252.697 73.5224 252.76 73.4419 252.824 73.3613C252.765 73.4419 252.701 73.5224 252.633 73.5988Z" fill="#171717"/>
<path d="M252.239 74.0783L252.599 73.6416C252.485 73.7857 252.362 73.9341 252.239 74.0783Z" fill="#171717"/>
<path d="M251.832 74.5535C251.954 74.4094 252.077 74.2652 252.205 74.1211C252.086 74.2652 251.959 74.4094 251.832 74.5535Z" fill="#171717"/>
<path d="M251.42 75.0229C251.543 74.8788 251.671 74.7389 251.798 74.5947C251.675 74.7389 251.548 74.8788 251.42 75.0229Z" fill="#171717"/>
<path d="M250.203 218.114C249.953 220.916 249.703 223.765 249.411 226.568C249.406 226.563 249.406 226.555 249.402 226.551C242.619 226.254 236.683 225.915 229.9 225.618H229.866L230.663 217.571L230.918 217.605C232.099 217.498 233.288 217.496 234.47 217.601L234.472 217.602C234.473 217.603 234.474 217.603 234.475 217.603C234.475 217.603 234.477 217.602 234.477 217.602C234.478 217.602 234.479 217.601 234.479 217.601C235.704 217.703 236.925 217.881 238.15 218.076C238.358 218.11 238.562 218.143 238.769 218.173C239.38 218.275 239.99 218.372 240.605 218.466C241.22 218.559 241.835 218.64 242.449 218.707C245.035 219.004 247.787 218.962 250.203 218.114Z" fill="white"/>
<path d="M242.449 218.707C245.078 218.961 247.834 218.919 250.208 218.071C250.208 218.084 250.204 218.101 250.204 218.113C247.787 218.961 245.036 219.004 242.449 218.707Z" fill="white"/>
<path d="M249.436 226.636H249.402C249.407 226.615 249.406 226.589 249.411 226.567C249.419 226.589 249.427 226.615 249.436 226.636Z" fill="#171717"/>
<path d="M245.596 72.6533C245.413 72.895 245.239 73.1324 245.078 73.3613L245.142 73.2596C245.286 73.0603 245.435 72.8568 245.596 72.6533Z" fill="#171717"/>
<path d="M238.769 218.173C239.38 218.27 239.995 218.372 240.605 218.465C239.99 218.372 239.38 218.275 238.769 218.173Z" fill="white"/>
<path d="M239.27 79.5093C242.554 79.7281 245.852 79.5861 249.106 79.0854C251.924 78.6254 254.694 77.9017 257.377 76.9232C258.249 76.6052 259.052 76.1232 259.743 75.5029C259.044 76.144 258.225 76.6408 257.335 76.9656C254.65 77.939 251.881 78.6627 249.063 79.1278C248.783 79.1702 248.499 79.2126 248.215 79.2507C245.239 79.6726 242.225 79.7735 239.227 79.5517C235.017 79.2804 230.057 78.6487 227.077 81.3493C230.053 78.5978 235.039 79.2338 239.27 79.5093Z" fill="#171717"/>
<path d="M237.887 71.4368C239.049 70.661 240.139 69.6986 241.232 68.9736C240.147 69.7113 239.058 70.6737 237.887 71.4368Z" fill="#171717"/>
<path d="M237.659 131.575L237.63 131.618H224.538L224.517 131.575H237.659Z" fill="white"/>
<path d="M237.629 131.617L231.567 139.973L231.385 139.842C230.409 139.757 229.392 139.63 228.417 139.545L224.538 131.617H237.629Z" fill="white"/>
<path d="M246.054 335.517C246.961 340.761 248.08 346.344 250.297 351.135C248.05 346.323 246.923 340.71 246.011 335.432C243.463 320.246 240.483 307.688 236.557 295.262C240.487 307.696 243.48 320.28 246.054 335.517Z" fill="#171717"/>
<path d="M236.132 163.206L230.621 217.562V217.566L230.579 217.562L229.782 225.617H229.773L228.586 237.573L207.74 238.459L214.341 159.56H214.337L214.341 159.526L236.132 163.206ZM224.346 234.266L230.239 181.013L217.69 179.825L211.628 234.52H211.674L211.67 234.563L224.346 234.266ZM229.773 169.735C229.802 169.1 229.701 168.465 229.477 167.869C229.253 167.274 228.911 166.729 228.472 166.27C228.032 165.81 227.503 165.444 226.918 165.194C226.333 164.944 225.704 164.815 225.067 164.815C224.431 164.815 223.801 164.944 223.216 165.194C222.631 165.444 222.103 165.81 221.663 166.27C221.224 166.729 220.881 167.274 220.658 167.869C220.434 168.465 220.333 169.1 220.361 169.735C220.362 170.069 220.394 170.4 220.459 170.727C220.618 171.621 221.024 172.452 221.632 173.126C222.24 173.799 223.025 174.289 223.897 174.539C223.971 174.562 224.046 174.58 224.122 174.594C224.276 174.628 224.432 174.653 224.588 174.67C224.907 174.704 225.228 174.704 225.546 174.67C225.703 174.653 225.859 174.628 226.013 174.594C226.089 174.577 226.165 174.56 226.237 174.539C227.11 174.289 227.895 173.799 228.502 173.126C229.11 172.452 229.517 171.621 229.676 170.727C229.74 170.4 229.773 170.069 229.773 169.735Z" fill="white"/>
<path d="M236.133 163.207L214.342 159.527V159.519L236.133 163.207Z" fill="white"/>
<path d="M234.814 289.932C235.416 291.708 235.992 293.476 236.552 295.252C235.992 293.48 235.413 291.707 234.814 289.932Z" fill="#171717"/>
<path d="M234.479 217.601C235.705 217.698 236.93 217.881 238.151 218.076C236.926 217.881 235.705 217.703 234.479 217.601Z" fill="white"/>
<path d="M230.918 217.606C232.1 217.496 233.289 217.495 234.47 217.601C233.289 217.497 232.1 217.498 230.918 217.606Z" fill="white"/>
<path d="M230.528 278.057C230.807 278.79 231.083 279.515 231.354 280.244C231.083 279.519 230.807 278.79 230.528 278.057Z" fill="#171717"/>
<path d="M230.663 217.571L229.866 225.617H229.824L230.621 217.566L230.663 217.571Z" fill="white"/>
<path d="M230.664 217.563V217.571L230.621 217.567V217.563L236.133 163.207L230.664 217.563Z" fill="white"/>
<path d="M230.621 217.567L229.824 225.618H229.782L230.579 217.563L230.621 217.567Z" fill="white"/>
<path d="M249.402 226.636C242.636 226.339 236.713 226 229.943 225.703H229.858L229.866 225.618H229.9C236.684 225.915 242.619 226.254 249.402 226.551C249.407 226.555 249.407 226.564 249.411 226.568C249.407 226.589 249.407 226.614 249.402 226.636Z" fill="white"/>
<path d="M229.866 225.618L229.858 225.703H229.816L229.824 225.618H229.866Z" fill="white"/>
<path d="M228.671 237.658L207.732 238.548L228.586 237.658L229.816 225.702H229.858L228.671 237.658Z" fill="white"/>
<path d="M229.823 225.618L229.815 225.703H229.773L229.782 225.618H229.823Z" fill="white"/>
<path d="M228.586 237.659L207.732 238.549L207.74 238.46L228.586 237.574L229.774 225.618H229.782L229.774 225.703H229.816L228.586 237.659Z" fill="white"/>
<path d="M224.346 234.267L211.67 234.564L211.674 234.521L224.346 234.267Z" fill="white"/>
<path d="M222.312 75.1426C222.227 75.2316 222.147 75.3206 222.07 75.4139C222.134 75.3376 222.202 75.2613 222.27 75.185C222.283 75.1697 222.297 75.1557 222.312 75.1426Z" fill="#171717"/>
<path d="M222.07 75.4133C221.993 75.5024 221.917 75.5956 221.845 75.6931C221.917 75.5956 221.989 75.5024 222.07 75.4133Z" fill="#171717"/>
<path d="M220.459 170.728C220.624 171.619 221.032 172.447 221.639 173.119C222.247 173.792 223.028 174.284 223.897 174.539C223.025 174.289 222.24 173.8 221.632 173.126C221.024 172.452 220.618 171.621 220.459 170.728Z" fill="white"/>
<path d="M220.833 77.5293C220.799 77.6141 220.765 77.6989 220.739 77.7837C220.769 77.6989 220.799 77.6141 220.833 77.5293Z" fill="#171717"/>
<path d="M220.506 78.5303C220.472 78.6447 220.446 78.7592 220.417 78.8779C220.446 78.7592 220.476 78.6447 220.506 78.5303Z" fill="#171717"/>
<path d="M220.281 103.467C220.344 103.48 220.404 103.492 220.467 103.501C220.405 103.494 220.342 103.482 220.281 103.467Z" fill="#171717"/>
<path d="M219.585 103.192C219.8 103.322 220.035 103.415 220.28 103.467C220.034 103.418 219.798 103.325 219.585 103.192Z" fill="#171717"/>
<path d="M245.799 72.3945C248.071 69.5201 251.62 66.1878 254.155 67.5105C255.775 68.2058 255.211 69.978 253.841 71.996C253.536 72.4412 253.193 72.899 252.824 73.3611C252.76 73.4417 252.697 73.5223 252.633 73.5986C252.62 73.6155 252.608 73.6282 252.599 73.641L252.239 74.0776C252.225 74.0899 252.214 74.1039 252.205 74.12C252.078 74.2642 251.955 74.4083 251.832 74.5525C251.82 74.5656 251.808 74.5796 251.798 74.5949C251.671 74.739 251.544 74.8789 251.421 75.0231C251.145 75.3368 250.865 75.6463 250.59 75.9473C250.575 75.9604 250.56 75.9744 250.547 75.9897C252.362 74.6627 254.168 74.0988 255.508 72.9923C255.58 72.9372 255.652 72.8736 255.724 72.81C257.08 71.5805 259.582 70.9022 260.557 72.4708C261.121 73.4035 260.786 74.3702 260.057 75.1884C259.959 75.2991 259.854 75.4042 259.743 75.5021C259.053 76.1224 258.249 76.6044 257.377 76.9224C254.694 77.9009 251.925 78.625 249.106 79.0846C245.853 79.5853 242.554 79.7273 239.27 79.5085C235.039 79.233 230.053 78.597 227.077 81.3485C226.958 81.4524 226.845 81.5626 226.738 81.6792C226.597 81.825 226.464 81.9777 226.339 82.1371C224.728 84.1721 224.601 86.9278 224.516 89.514C224.389 93.2448 224.262 97.018 224.135 100.753C224.134 100.848 224.127 100.943 224.113 101.037C224.101 101.13 224.083 101.222 224.058 101.313C224.046 101.355 224.033 101.402 224.016 101.444C223.982 101.533 223.944 101.622 223.906 101.707C223.635 102.184 223.258 102.593 222.805 102.903C222.352 103.212 221.833 103.413 221.29 103.492C221.239 103.5 221.192 103.505 221.142 103.513C220.917 103.534 220.691 103.53 220.467 103.5C220.404 103.492 220.344 103.479 220.281 103.466C220.035 103.414 219.8 103.321 219.586 103.191C219.535 103.157 219.48 103.123 219.429 103.085C217.86 101.898 218.369 99.053 220.107 98.2899C218.666 98.841 217.224 100.032 215.825 99.3074C211.882 97.5692 219.598 90.8706 219.853 86.2919C219.971 84.1212 219.891 81.781 220.264 79.64C220.306 79.3814 220.357 79.127 220.417 78.8768C220.446 78.7581 220.472 78.6437 220.506 78.5292C220.573 78.2791 220.65 78.0289 220.739 77.783C220.764 77.6982 220.798 77.6134 220.832 77.5287C220.874 77.4184 220.917 77.3124 220.963 77.2022C221.057 76.9902 221.158 76.7825 221.273 76.579C221.32 76.49 221.37 76.4052 221.421 76.3204C221.464 76.2483 221.506 76.1762 221.553 76.1084C221.646 75.9642 221.744 75.8286 221.845 75.6929C221.917 75.5954 221.994 75.5021 222.07 75.4131C222.146 75.3241 222.227 75.2308 222.312 75.1418C222.42 75.0239 222.535 74.912 222.655 74.8068C225.53 72.2122 230.083 72.6065 234.013 72.7676C235.192 72.7765 236.346 72.4344 237.328 71.784C237.519 71.678 237.706 71.5593 237.888 71.4364C239.058 70.6732 240.148 69.7109 241.233 68.9732C241.407 68.8545 241.576 68.7442 241.75 68.6382C242.534 68.1185 243.46 67.8573 244.4 67.8921C247.113 67.8921 246.138 71.7077 245.036 73.4035C245.07 73.3569 245.104 73.306 245.142 73.2594L245.078 73.3611C245.239 73.1322 245.413 72.8948 245.595 72.6531C245.663 72.5683 245.727 72.4793 245.799 72.3945Z" fill="#171717"/>
<path d="M214.341 159.561L207.74 238.459H207.736L214.337 159.561H214.341Z" fill="white"/>
<path d="M214.337 159.561L207.736 238.459L207.694 238.464L214.295 159.565L214.337 159.561Z" fill="white"/>
<path d="M209.89 169.101L193.949 165.328C193.953 165.319 193.957 165.306 193.962 165.298L209.89 169.101Z" fill="white"/>
<path d="M207.74 238.459L207.732 238.549H207.728L207.736 238.459H207.74Z" fill="white"/>
<path d="M207.735 238.459L207.727 238.549H207.685L207.694 238.463L207.735 238.459Z" fill="white"/>
<path d="M207.727 238.549H207.731L207.727 238.591L200.931 235.073L207.685 238.549H207.727Z" fill="white"/>
<path d="M207.642 238.464H207.693L207.685 238.549L200.931 235.073L200.435 234.818L200.401 234.801V234.797L200.435 234.733L207.642 238.464Z" fill="white"/>
<path d="M195.645 161.341L195.899 161.51L214.295 159.564L207.694 238.463H207.643L200.436 234.732L200.402 234.796L190.977 229.899L190.892 229.857L190.651 229.73L187.373 228.034L187.161 227.991V227.525C187.153 227.466 187.145 227.411 187.132 227.351C186.896 226.487 186.439 225.699 185.805 225.066C184.211 223.137 182.553 221.31 180.798 219.546C180.548 219.292 180.293 219.042 180.039 218.791L178.894 218.707L179.657 218.452C180.546 218.058 181.349 217.495 182.023 216.795C182.038 216.78 182.053 216.764 182.065 216.748C182.142 216.667 182.218 216.583 182.29 216.498L182.371 216.54L199.545 228.966L209.89 169.099L193.962 165.296C194.085 165.05 194.208 164.809 194.331 164.563C194.41 164.467 194.469 164.356 194.505 164.236C194.54 164.117 194.552 163.991 194.538 163.868C194.543 163.745 194.543 163.613 194.547 163.49C194.54 163.384 194.554 163.278 194.59 163.178C194.626 163.078 194.682 162.987 194.755 162.909C195.051 162.401 195.348 161.85 195.645 161.341Z" fill="white"/>
<path d="M182.29 216.499C182.218 216.584 182.141 216.669 182.065 216.749C182.141 216.669 182.213 216.584 182.285 216.499H182.29Z" fill="white"/>
<path d="M180.797 219.547C182.553 221.31 184.21 223.138 185.804 225.067C184.21 223.176 182.548 221.315 180.797 219.547Z" fill="white"/>
<path d="M162.996 216.371C163.248 216.811 163.562 217.213 163.928 217.563L163.632 217.648C163.541 217.954 163.47 218.265 163.42 218.58L163.369 218.572L163.165 218.538L158.756 215.566L158.76 215.553L159.774 209.97V209.842C160.574 209.807 161.377 209.836 162.173 209.927V209.936C162.154 209.968 162.145 210.004 162.148 210.042V210.054C162.025 210.634 161.946 211.222 161.91 211.814C161.89 212.158 161.889 212.504 161.906 212.848C161.965 214.096 162.34 215.308 162.996 216.371Z" fill="white"/>
<path d="M162.19 209.928C162.187 209.928 162.184 209.929 162.181 209.93C162.178 209.932 162.175 209.934 162.173 209.937V209.928H162.19Z" fill="white"/>
<path d="M162.148 210.054V210.096C162.027 210.662 161.947 211.236 161.91 211.813C161.945 211.222 162.025 210.633 162.148 210.054Z" fill="white"/>
<path d="M193.652 141.793C217.296 148.097 226.077 141.882 228.018 140.084C226.166 141.831 217.436 148.19 193.61 141.835C191.231 141.199 188.9 140.606 186.568 140.012C164.764 134.522 144.859 131.834 132.615 146.935C144.681 131.965 164.225 134.403 185.699 139.741C186 139.817 186.305 139.894 186.61 139.97C188.942 140.563 191.274 141.157 193.652 141.793Z" fill="white"/>
<path d="M136.032 169.1L124.03 172.067L124.034 172.055L135.99 169.1C135.99 169.1 149.2 149.381 176.117 148.169C149.23 149.403 136.032 169.1 136.032 169.1Z" fill="white"/>
<path d="M108.258 277.811C109.312 277.608 110.4 277.687 111.413 278.04C108.241 279.859 105.494 282.314 102.789 284.722C98.5074 288.495 94.2678 292.268 89.9858 296.042C88.4172 297.441 86.8486 298.797 85.5767 300.451C84.2616 302.078 83.3988 304.023 83.0753 306.089C82.9218 308.329 83.4539 310.562 84.6016 312.491C85.7039 314.441 87.2301 316.053 88.8412 317.621L88.9132 317.867C88.276 318.088 87.5884 318.12 86.9333 317.96C86.2622 317.722 85.6721 317.301 85.229 316.744C85.1485 316.655 85.0722 316.557 84.9959 316.46C84.8135 316.226 84.644 315.989 84.4744 315.756C83.2449 314.018 81.973 312.322 80.7435 310.583C80.6206 310.414 80.4977 310.244 80.3747 310.07C80.2433 309.884 80.1161 309.689 79.9889 309.494C79.9295 309.405 79.8744 309.312 79.8193 309.223C79.7642 309.134 79.7091 309.04 79.654 308.947C79.5565 308.777 79.4632 308.608 79.3784 308.438C78.8357 307.482 78.6437 306.366 78.8357 305.284C79.1325 303.927 80.1924 302.91 81.1675 301.935L102.917 281.203C104.485 279.719 106.139 278.193 108.258 277.811Z" fill="white"/>
<path d="M110.081 292.692C111.942 288.884 114.228 284.823 117.395 282.194L117.416 282.22C114.236 284.848 111.947 288.918 110.081 292.734C107.792 297.453 105.592 302.29 105.324 307.293C105.579 302.277 107.783 297.423 110.081 292.692Z" fill="white"/>
<path d="M105.418 310.329C105.475 310.929 105.574 311.523 105.714 312.109C106.088 313.797 106.6 314.971 107.33 315.802C106.575 314.971 106.049 313.784 105.672 312.067C105.553 311.503 105.469 310.939 105.388 310.375L105.418 310.371C105.375 310.011 105.346 309.65 105.329 309.29C105.35 309.633 105.375 309.981 105.418 310.329Z" fill="#171717"/>
<path d="M105.329 309.29C105.346 309.651 105.375 310.011 105.418 310.371L105.388 310.376L105.375 310.287C104.697 304.182 107.325 298.331 110.039 292.65C111.9 288.843 114.185 284.777 117.356 282.148L117.394 282.195C114.227 284.824 111.942 288.885 110.081 292.692C107.783 297.424 105.579 302.278 105.324 307.293C105.286 307.959 105.287 308.625 105.329 309.29Z" fill="white"/>
<path d="M105.078 310.413C100.245 312.703 95.3697 314.992 90.5366 317.282C89.4343 317.833 88.1624 318.342 86.9753 318.002C86.2767 317.774 85.6662 317.334 85.2286 316.743C85.6717 317.3 86.2622 317.722 86.9329 317.96C87.5884 318.12 88.2756 318.087 88.9128 317.867L88.8408 317.621C87.2297 316.052 85.7035 314.441 84.6012 312.491C83.4539 310.561 82.9215 308.328 83.0749 306.089C83.3984 304.022 84.2612 302.077 85.5763 300.45C86.8482 298.797 88.4168 297.44 89.9854 296.041C94.2674 292.268 98.507 288.495 102.789 284.722C105.494 282.314 108.241 279.859 111.412 278.04C111.62 278.108 111.828 278.184 112.036 278.269C112.277 278.371 112.519 278.485 112.756 278.608C112.926 278.697 113.091 278.79 113.261 278.888C113.337 278.935 113.418 278.981 113.498 279.032C114.454 279.636 115.358 280.316 116.203 281.067C116.292 281.143 116.377 281.22 116.462 281.296C116.712 281.521 116.962 281.741 117.204 281.966L117.356 282.148C114.185 284.777 111.9 288.843 110.039 292.65C107.325 298.331 104.697 304.181 105.375 310.286L105.388 310.375L105.078 310.413Z" fill="white"/>
<path d="M79.8191 309.222C79.8742 309.311 79.9293 309.404 79.9887 309.493C79.9293 309.404 79.87 309.315 79.8191 309.222Z" fill="white"/>
<path d="M79.6541 308.947C79.7092 309.041 79.7643 309.13 79.8194 309.223C79.76 309.134 79.7049 309.041 79.6541 308.947Z" fill="white"/>
<path d="M238.253 121.528C236.981 119.238 237.744 116.779 239.228 114.66C240.712 112.54 242.831 110.929 244.527 108.979C247.876 105.078 249.488 99.9059 249.911 94.7718C250.335 89.6376 249.7 84.512 249.106 79.3821" stroke="#171717" stroke-width="2.956" stroke-linecap="round" stroke-linejoin="round"/>
<path d="M220.107 98.29C218.368 99.0532 217.86 101.898 219.428 103.085C219.479 103.123 219.534 103.157 219.585 103.191C219.8 103.321 220.035 103.414 220.28 103.467C220.344 103.479 220.403 103.492 220.467 103.5C220.69 103.53 220.916 103.534 221.141 103.513C221.192 103.509 221.243 103.5 221.289 103.492C221.834 103.418 222.354 103.218 222.808 102.908C223.262 102.598 223.637 102.187 223.905 101.707C223.948 101.622 223.985 101.534 224.016 101.444C224.032 101.402 224.045 101.355 224.058 101.313C224.082 101.222 224.101 101.13 224.113 101.037C224.127 100.943 224.133 100.848 224.134 100.753V100.541" stroke="#171717" stroke-width="2.956" stroke-linecap="round" stroke-linejoin="round"/>
<path d="M220.573 98.1628C220.403 98.2052 220.276 98.2476 220.107 98.29" stroke="#171717" stroke-width="2.956" stroke-linecap="round" stroke-linejoin="round"/>
<path d="M223.499 121.739V121.654C223.711 114.701 223.923 107.706 224.177 100.753C224.304 96.9756 224.432 93.2448 224.559 89.4716C224.644 86.8854 224.813 84.0873 226.382 82.0947C226.496 81.9506 226.615 81.8107 226.738 81.6792C226.845 81.5626 226.958 81.452 227.077 81.3485C230.053 78.5971 235.039 79.233 239.27 79.5086C242.554 79.7273 245.852 79.5853 249.106 79.0846C251.925 78.6246 254.694 77.9009 257.377 76.9224C258.249 76.6044 259.052 76.1224 259.743 75.5022C259.854 75.4038 259.958 75.2991 260.057 75.1884C260.816 74.3617 261.172 73.3781 260.599 72.4285C259.624 70.8598 257.123 71.5381 255.766 72.7676C255.682 72.8439 255.597 72.9202 255.508 72.9923C254.176 74.0692 252.421 74.6373 250.59 75.9473C250.865 75.6463 251.145 75.3368 251.421 75.0231C251.544 74.8789 251.671 74.739 251.798 74.5949C251.808 74.5796 251.819 74.5656 251.832 74.5525C251.955 74.4083 252.078 74.2642 252.205 74.1201C252.214 74.1039 252.225 74.0899 252.239 74.0777L252.599 73.641C252.608 73.6283 252.621 73.6155 252.633 73.5986C252.697 73.5223 252.76 73.4417 252.824 73.3612C253.193 72.899 253.536 72.4412 253.842 71.996C255.232 69.9737 255.826 68.1931 254.198 67.4681C251.645 66.1369 248.042 69.5116 245.799 72.3945C245.727 72.4793 245.663 72.5684 245.596 72.6532C245.413 72.8948 245.239 73.1322 245.078 73.3612L245.142 73.2594C246.215 71.5169 247.062 67.8497 244.442 67.8497C243.484 67.8183 242.541 68.0948 241.75 68.6383C241.576 68.7443 241.407 68.8545 241.233 68.9732C240.148 69.7109 239.058 70.6733 237.888 71.4364C237.706 71.5593 237.519 71.6781 237.328 71.784C236.351 72.4073 235.214 72.7341 234.055 72.7252C230.104 72.5641 225.53 72.1656 222.655 74.8069C222.534 74.912 222.42 75.0235 222.312 75.1418C222.227 75.2308 222.146 75.3199 222.07 75.4131C221.994 75.5064 221.917 75.5954 221.845 75.6929C221.744 75.8286 221.646 75.9643 221.553 76.1084C221.506 76.1763 221.464 76.2483 221.421 76.3204C221.371 76.4052 221.32 76.49 221.273 76.579C221.159 76.7825 221.057 76.9903 220.964 77.2022C220.917 77.3125 220.875 77.4184 220.832 77.5287C220.798 77.6135 220.764 77.6983 220.739 77.7831C220.65 78.0289 220.574 78.2791 220.506 78.5292C220.472 78.6437 220.446 78.7582 220.417 78.8769C220.357 79.127 220.306 79.3814 220.264 79.64C219.899 81.7555 219.988 84.0746 219.895 86.2495C219.641 90.8282 211.925 97.5268 215.868 99.265C217.267 99.99 218.708 98.7987 220.15 98.2475" stroke="#171717" stroke-width="2.956" stroke-linecap="round" stroke-linejoin="round"/>
<path d="M215.994 128.608C215.698 127.294 215.486 126.743 215.655 125.386C215.825 124.03 216.503 122.673 217.775 122.08C218.642 121.761 219.567 121.631 220.488 121.698H223.541C228.446 121.698 233.347 121.74 238.252 121.74H239.736C241.898 121.74 244.145 121.783 246.053 122.843C247.902 123.894 249.25 126.234 248.406 128.176C248.401 128.194 248.394 128.211 248.385 128.227" stroke="#171717" stroke-width="2.956" stroke-linecap="round" stroke-linejoin="round"/>
<path d="M215.783 128.82H216.037C226.806 129.201 237.702 129.54 248.343 128.184C248.364 128.179 248.385 128.179 248.407 128.175C251.141 127.836 253.837 127.374 256.53 126.785C273.73 122.966 289.256 113.739 300.833 100.457C303.886 96.9337 307.023 92.906 311.564 91.8462C311.943 91.7584 312.326 91.6901 312.713 91.6427C312.738 91.6384 312.768 91.6384 312.793 91.6342C314.034 91.5163 315.287 91.624 316.49 91.9521C316.515 91.9606 316.541 91.9649 316.566 91.9733C319.406 92.806 321.866 94.6057 323.519 97.0608L323.545 97.099C323.844 97.5518 324.118 98.0203 324.367 98.5023C326.657 103.17 326.105 108.851 323.986 113.599C321.823 118.348 318.22 122.248 314.362 125.725C297.357 140.987 274.972 148.958 252.46 153.155C252.417 153.163 252.375 153.167 252.332 153.176C251.4 153.337 250.463 153.502 249.572 153.664" stroke="#171717" stroke-width="2.956" stroke-linecap="round" stroke-linejoin="round"/>
<path d="M312.665 91.2524C313.259 90.0653 312.962 88.6238 312.369 87.4368C311.775 86.2497 310.927 85.1898 310.376 84.0027C309.825 82.8156 309.566 81.3318 310.202 80.1871C310.97 78.8304 312.581 78.3641 314.149 78.1097C314.344 78.0635 314.543 78.0351 314.743 78.0249C316.523 77.7705 318.389 77.5161 320.127 77.8977C320.136 77.8977 320.144 77.9019 320.152 77.9019C320.522 77.9766 320.883 78.0889 321.229 78.2369C322.15 78.5544 322.93 79.1844 323.434 80.0175C323.68 80.4334 323.813 80.9065 323.821 81.3898C323.828 81.8732 323.709 82.3497 323.476 82.7732C322.84 83.7907 321.484 84.1299 320.254 84.1723C319.661 84.1723 319.025 84.1723 318.431 84.2147C317.839 84.2062 317.249 84.3067 316.693 84.5114" stroke="#171717" stroke-width="2.956" stroke-linecap="round" stroke-linejoin="round"/>
<path d="M323.349 97.1029H323.477C323.498 97.1029 323.523 97.0986 323.544 97.0986C329.751 96.6577 335.708 99.4897 341.283 102.279C349.55 106.392 357.86 110.547 366.127 114.659C372.066 93.796 377.989 72.95 383.895 52.1209C384.092 51.621 384.121 51.0707 383.98 50.5522C383.724 50.0986 383.341 49.7302 382.877 49.4923C376.348 45.5071 369.735 41.4795 362.693 38.4228C355.651 35.366 348.024 33.3777 340.35 33.5897C337.764 33.6745 334.966 34.056 333.016 35.7519C331.065 37.4477 330.302 40.1186 329.624 42.6242L323.137 66.7898C323.133 66.811 323.125 66.8365 323.121 66.8577C322.15 70.4825 321.183 74.0607 320.212 77.6432" stroke="#171717" stroke-width="2.956" stroke-linecap="round" stroke-linejoin="round"/>
<path d="M318.432 84.2158C317.516 86.7201 316.865 89.3131 316.49 91.9531C316.486 91.9743 316.486 91.9955 316.481 92.0167C316.481 92.1014 316.439 92.1862 316.439 92.271" stroke="#171717" stroke-width="2.956" stroke-linecap="round" stroke-linejoin="round"/>
<path d="M314.149 77.8976C314.02 75.3441 314.785 72.8258 316.311 70.7751C317.845 68.7269 320.052 67.2859 322.544 66.7051" stroke="#171717" stroke-width="2.956" stroke-linecap="round" stroke-linejoin="round"/>
<path d="M252.332 153.112V153.197C254.706 169.615 256.234 186.145 256.911 202.72C257.123 207.51 256.953 212.979 253.434 216.202C252.496 217.045 251.399 217.695 250.208 218.114H250.204C247.787 218.962 245.036 219.004 242.449 218.707C241.835 218.639 241.22 218.555 240.605 218.465C239.99 218.376 239.38 218.275 238.769 218.173C238.562 218.143 238.358 218.109 238.15 218.075C236.925 217.88 235.704 217.702 234.479 217.601L234.477 217.602C234.476 217.602 234.476 217.602 234.475 217.602C234.474 217.602 234.473 217.602 234.473 217.602C234.472 217.601 234.471 217.601 234.47 217.601C233.289 217.496 232.1 217.498 230.918 217.605" stroke="#171717" stroke-width="2.956" stroke-linecap="round" stroke-linejoin="round"/>
<path d="M250.251 218.114C249.996 220.955 249.7 223.795 249.445 226.636H249.403C242.636 226.339 236.714 226 229.943 225.703" stroke="#171717" stroke-width="2.956" stroke-linecap="round" stroke-linejoin="round"/>
<path d="M249.445 226.635C264.075 264.834 278.448 302.189 293.074 340.392C294.855 345.013 296.593 350.313 294.346 354.679C294.057 355.233 293.717 355.758 293.329 356.248C290.785 359.47 286.249 360.912 282.094 361.887C274.929 363.54 266.958 364.6 260.387 361.717C259.515 361.34 258.678 360.886 257.886 360.36C254.884 358.419 252.692 355.727 251.039 352.619C250.776 352.136 250.534 351.64 250.297 351.135C248.08 346.344 246.96 340.761 246.053 335.516C243.48 320.279 240.486 307.696 236.556 295.262C236.556 295.258 236.555 295.255 236.552 295.253C235.992 293.477 235.416 291.709 234.814 289.932C234.212 288.156 233.589 286.371 232.944 284.578C232.558 283.501 232.164 282.42 231.761 281.335C231.626 280.97 231.49 280.605 231.354 280.245C231.083 279.516 230.807 278.791 230.528 278.057C230.248 277.324 229.964 276.591 229.675 275.849C228.107 271.804 226.415 267.649 224.592 263.308C224.583 263.279 224.571 263.251 224.558 263.223C224.092 262.078 223.583 260.934 223.074 259.747" stroke="#171717" stroke-width="2.956" stroke-linecap="round" stroke-linejoin="round"/>
<path d="M200.223 235.241C198.103 243.805 195.984 252.412 192.206 260.34C188.433 268.31 182.837 275.645 175.205 280.016C162.953 287.053 147.521 285.442 134.039 281.288C130.346 280.143 126.446 278.829 122.673 279.592C120.734 280.007 118.928 280.895 117.416 282.178C117.407 282.182 117.403 282.191 117.394 282.195C114.227 284.823 111.942 288.885 110.081 292.692C107.783 297.423 105.579 302.278 105.324 307.293C105.285 307.958 105.287 308.625 105.329 309.29C105.35 309.633 105.375 309.981 105.418 310.329C105.475 310.928 105.574 311.523 105.714 312.109C106.087 313.797 106.6 314.971 107.33 315.802C107.451 315.94 107.583 316.069 107.724 316.188C110.009 318.219 114.147 317.689 121.825 318.257C170.627 321.86 204.166 311.982 217.605 286.078C221.285 279.011 223.066 271.18 224.592 263.308C224.596 263.295 224.596 263.278 224.601 263.265C225.194 260.128 225.788 256.948 226.424 253.853" stroke="#171717" stroke-width="2.956" stroke-linecap="round" stroke-linejoin="round"/>
<path d="M178.894 148.449C176.76 151.549 175.009 154.896 173.68 158.416C173.34 159.264 173.044 160.112 172.747 160.96C171.941 163.25 171.221 165.539 170.5 167.871C167.193 181.989 164.692 195.301 162.19 209.843C162.192 209.859 162.189 209.875 162.182 209.889C162.181 209.902 162.178 209.915 162.173 209.927V209.936C162.16 209.97 162.151 210.005 162.148 210.042V210.055C162.025 210.634 161.945 211.223 161.91 211.814C161.89 212.158 161.888 212.504 161.906 212.848C161.972 214.081 162.347 215.278 162.996 216.329C163.249 216.768 163.563 217.169 163.928 217.521C165.836 219.301 168.889 219.344 171.348 219.683C173.976 220.064 176.605 219.428 178.937 218.665L179.7 218.411C180.569 218.024 181.358 217.476 182.023 216.796C182.038 216.781 182.052 216.765 182.065 216.749C182.142 216.668 182.218 216.584 182.29 216.499C182.303 216.486 182.316 216.469 182.328 216.456C182.49 216.262 182.64 216.058 182.778 215.846C182.784 215.838 182.79 215.83 182.795 215.82C184.067 213.955 184.575 211.581 185.126 209.207C187.454 194.894 187.246 180.619 192.83 167.616C192.834 167.604 192.842 167.587 192.847 167.574C193.164 166.793 193.524 166.031 193.924 165.289C193.932 165.272 193.941 165.259 193.949 165.242L194.331 164.479C194.476 164.31 194.551 164.091 194.538 163.869C194.543 163.746 194.543 163.614 194.547 163.491C194.532 163.372 194.543 163.251 194.579 163.136C194.615 163.022 194.675 162.916 194.755 162.826C195.051 162.317 195.348 161.766 195.645 161.257C198.203 157.249 201.347 153.647 204.972 150.569" stroke="#171717" stroke-width="2.956" stroke-linecap="round" stroke-linejoin="round"/>
<path d="M215.995 128.904C207.639 128.815 199.432 131.11 192.333 135.518C190.335 136.754 188.436 138.143 186.652 139.673" stroke="#171717" stroke-width="2.956" stroke-linecap="round" stroke-linejoin="round"/>
<path d="M245.12 84.8503C243.185 84.5544 241.227 84.4268 239.27 84.4687C238.858 84.4416 238.447 84.5298 238.083 84.7231C237.532 85.1471 237.532 85.9526 237.574 86.6309C237.871 90.1074 238.168 93.6262 238.464 97.1027C238.56 97.6869 238.502 98.286 238.295 98.8409C238.111 99.1822 237.844 99.4705 237.517 99.6791C237.19 99.8877 236.816 100.009 236.429 100.032C235.657 100.076 234.884 99.9898 234.14 99.7779" stroke="#171717" stroke-width="2.956" stroke-linecap="round" stroke-linejoin="round"/>
<path d="M241.008 89.3019C241.027 89.2688 241.048 89.2379 241.072 89.2086C241.093 89.1747 241.119 89.1408 241.14 89.1111C241.161 89.0815 241.178 89.0645 241.195 89.0391" stroke="#171717" stroke-width="2.956" stroke-linecap="round" stroke-linejoin="round"/>
<path d="M241.195 89.0391C241.178 89.0606 241.157 89.0863 241.139 89.1121" stroke="#171717" stroke-width="2.956" stroke-linecap="round" stroke-linejoin="round"/>
<path d="M241.195 89.0399C241.228 88.9975 241.265 88.9576 241.305 88.9211" stroke="#171717" stroke-width="2.956" stroke-linecap="round" stroke-linejoin="round"/>
<path d="M244.569 89.3876C244.417 89.0523 244.173 88.7674 243.865 88.5647C243.558 88.3621 243.199 88.2506 242.831 88.2429C242.544 88.2484 242.262 88.3112 241.999 88.4278C241.737 88.5439 241.501 88.7118 241.305 88.9213" stroke="#171717" stroke-width="2.956" stroke-linecap="round" stroke-linejoin="round"/>
<path d="M232.699 88.921C232.599 88.5157 232.38 88.1494 232.07 87.87C231.761 87.5902 231.374 87.41 230.961 87.3524C230.554 87.3074 230.144 87.3842 229.782 87.5728C229.419 87.7615 229.121 88.0536 228.926 88.4122" stroke="#171717" stroke-width="2.956" stroke-linecap="round" stroke-linejoin="round"/>
<path d="M232.232 105.503C231.84 105.7 231.403 105.789 230.965 105.76C230.527 105.731 230.105 105.586 229.742 105.34C229.379 105.094 229.088 104.755 228.9 104.359C228.711 103.962 228.633 103.523 228.671 103.086" stroke="#171717" stroke-width="2.956" stroke-linecap="round" stroke-linejoin="round"/>
<path d="M117.204 281.965C116.962 281.741 116.712 281.52 116.462 281.296C116.377 281.219 116.288 281.143 116.203 281.067C115.359 280.316 114.454 279.635 113.498 279.032C113.418 278.981 113.337 278.934 113.261 278.887C113.091 278.79 112.926 278.697 112.756 278.608C112.519 278.485 112.277 278.37 112.036 278.269C111.832 278.179 111.629 278.103 111.425 278.031C110.396 277.668 109.29 277.577 108.216 277.768C106.096 278.15 104.442 279.718 102.874 281.16L81.1247 301.891C80.1072 302.824 79.0897 303.884 78.793 305.241C78.6026 306.342 78.8099 307.475 79.378 308.437C79.4628 308.607 79.5561 308.777 79.6536 308.946C79.7087 309.039 79.7638 309.128 79.819 309.222C79.8741 309.315 79.9292 309.404 79.9885 309.493C80.1157 309.688 80.2429 309.883 80.3743 310.07C80.4846 310.231 80.5906 310.388 80.7008 310.54C81.9303 312.278 83.2021 313.974 84.4316 315.713C84.6139 315.963 84.8005 316.217 84.9955 316.459C85.0718 316.556 85.1481 316.654 85.2287 316.743C85.6717 317.3 86.2623 317.722 86.933 317.959C87.5884 318.119 88.2756 318.087 88.9129 317.866C89.453 317.691 89.9812 317.481 90.4942 317.239C95.3274 314.949 100.203 312.66 105.036 310.371" stroke="#171717" stroke-width="2.956" stroke-linecap="round" stroke-linejoin="round"/>
<path d="M260.388 361.421V361.76C260.345 366.424 260.303 371.087 260.303 375.751C260.303 376.811 260.303 377.955 260.896 378.846C260.951 378.926 261.007 379.007 261.066 379.079C261.125 379.152 261.189 379.221 261.257 379.286C261.32 379.354 261.392 379.418 261.46 379.477C261.528 379.537 261.604 379.587 261.681 379.643C262.872 380.452 264.636 380.44 266.153 380.372C275.976 379.732 285.828 379.676 295.657 380.206C295.673 380.21 295.691 380.212 295.707 380.211C297.179 380.291 298.647 380.387 300.112 380.499C303.546 380.753 306.981 381.093 310.419 380.753C313.857 380.414 317.287 379.312 319.873 377.022C322.459 374.733 323.986 371.087 323.18 367.738C323.097 367.402 322.992 367.072 322.866 366.75C322.44 365.685 321.817 364.71 321.031 363.876C320.716 363.539 320.38 363.221 320.026 362.926C318.666 361.799 317.103 360.943 315.422 360.403C312.509 359.466 309.448 359.326 306.391 359.208C305.709 359.187 305.03 359.161 304.352 359.131C300.621 358.962 296.763 358.496 293.626 356.503" stroke="#171717" stroke-width="2.956" stroke-linecap="round" stroke-linejoin="round"/>
<path d="M187.331 227.992L190.65 229.73L190.892 229.857L190.913 229.87L190.977 229.9L200.401 234.801L200.435 234.818L200.931 235.072L207.685 238.549M207.685 238.549L207.693 238.464L214.294 159.565L214.299 159.519L214.341 159.527L236.132 163.207L230.621 217.563V217.567L229.824 225.618L229.815 225.703L228.586 237.658L207.731 238.549H207.727H207.685Z" stroke="#171717" stroke-width="2.956" stroke-linecap="round" stroke-linejoin="round"/>
<path d="M214.299 159.519L195.857 161.469" stroke="#171717" stroke-width="2.956" stroke-linecap="round" stroke-linejoin="round"/>
<path d="M193.737 165.242L193.907 165.285L193.923 165.289L193.962 165.297L209.89 169.1L199.545 228.967L182.371 216.541" stroke="#171717" stroke-width="2.956" stroke-linecap="round" stroke-linejoin="round"/>
<path d="M192.931 167.658L205.905 169.693L198.824 223.667L182.795 215.862L182.778 215.845L182.752 215.82" stroke="#171717" stroke-width="2.956" stroke-linecap="round" stroke-linejoin="round"/>
<path d="M172.068 160.749C169.567 159.349 166.26 160.749 164.564 163.038C162.869 165.327 162.317 168.253 161.851 171.093C159.858 183.134 157.823 195.132 155.831 207.172C155.619 208.359 155.449 209.589 155.237 210.776C156.676 210.221 158.192 209.892 159.731 209.801C160.538 209.765 161.346 209.794 162.148 209.885" stroke="#171717" stroke-width="2.956" stroke-linecap="round" stroke-linejoin="round"/>
<path d="M155.449 207.087C154.601 207.087 153.796 207.087 152.99 207.044C154.855 191.443 157.088 175.869 159.689 160.324C163.924 157.887 168.945 157.202 173.679 158.416H173.764" stroke="#171717" stroke-width="2.956" stroke-linecap="round" stroke-linejoin="round"/>
<path d="M180.039 218.792C180.293 219.042 180.548 219.292 180.798 219.547C182.553 221.31 184.211 223.138 185.805 225.067C186.36 225.741 186.954 226.491 187.132 227.352C187.144 227.411 187.153 227.466 187.161 227.526V227.992C187.059 228.679 186.741 229.316 186.253 229.812C185.766 230.307 185.134 230.634 184.448 230.748C182.922 231.002 181.565 230.027 180.844 228.67C180.124 227.314 180.039 226.296 179.827 224.897" stroke="#171717" stroke-width="2.956" stroke-linecap="round" stroke-linejoin="round"/>
<path d="M171.008 231.553H170.839C167.829 231.595 165.073 229.391 163.886 226.635C162.788 224.1 162.826 221.276 163.369 218.571C163.373 218.558 163.373 218.55 163.377 218.537C163.462 218.24 163.504 217.901 163.589 217.604" stroke="#171717" stroke-width="2.956" stroke-linecap="round" stroke-linejoin="round"/>
<path d="M168.295 225.109C168.731 227.077 169.584 228.927 170.797 230.536C170.979 230.782 171.165 231.024 171.36 231.253C171.903 231.906 172.51 232.504 173.171 233.037C175.418 234.818 178.682 235.369 181.268 234.055" stroke="#171717" stroke-width="2.956" stroke-linecap="round" stroke-linejoin="round"/>
<path d="M174.273 225.363C174.273 229.052 177.58 232.571 181.184 233.758C181.213 233.758 181.247 233.783 181.298 233.792C181.316 233.797 181.335 233.8 181.353 233.8C183.087 234.361 184.961 234.314 186.664 233.667C188.368 233.019 189.799 231.81 190.723 230.239" stroke="#171717" stroke-width="2.956" stroke-linecap="round" stroke-linejoin="round"/>
<path d="M159.731 209.928L158.713 215.524L158.76 215.554L163.123 218.496" stroke="#171717" stroke-width="2.956" stroke-linecap="round" stroke-linejoin="round"/>
<path d="M211.674 234.521L211.67 234.563L224.346 234.266L230.239 181.013L217.69 179.868L211.674 234.521Z" stroke="#171717" stroke-width="2.956" stroke-linecap="round" stroke-linejoin="round"/>
<path d="M220.459 170.728C220.394 170.401 220.362 170.069 220.362 169.735C220.333 169.1 220.434 168.465 220.658 167.87C220.881 167.274 221.224 166.73 221.664 166.27C222.103 165.81 222.631 165.444 223.217 165.194C223.802 164.944 224.431 164.815 225.068 164.815C225.704 164.815 226.334 164.944 226.919 165.194C227.504 165.444 228.032 165.81 228.472 166.27C228.912 166.73 229.254 167.274 229.478 167.87C229.701 168.465 229.802 169.1 229.773 169.735C229.773 170.069 229.741 170.401 229.676 170.728C229.511 171.618 229.102 172.446 228.495 173.119C227.889 173.792 227.107 174.283 226.238 174.539C226.166 174.56 226.089 174.577 226.013 174.594C225.859 174.628 225.703 174.653 225.547 174.67C225.228 174.704 224.907 174.704 224.588 174.67C224.432 174.653 224.276 174.628 224.122 174.594C224.046 174.58 223.971 174.562 223.897 174.539C223.025 174.289 222.24 173.8 221.633 173.125C221.025 172.452 220.618 171.621 220.459 170.728Z" stroke="#171717" stroke-width="2.956" stroke-linecap="round" stroke-linejoin="round"/>
<path d="M337.51 44.3203C350.204 45.309 362.615 48.5836 374.144 53.9866" stroke="#171717" stroke-width="2.956" stroke-linecap="round" stroke-linejoin="round"/>
<path d="M335.178 55.1309C347.224 56.2357 358.966 59.5404 369.819 64.8819" stroke="#171717" stroke-width="2.956" stroke-linecap="round" stroke-linejoin="round"/>
<path d="M332.04 66.5784C342.712 66.3156 353.234 69.1264 362.353 74.676" stroke="#171717" stroke-width="2.956" stroke-linecap="round" stroke-linejoin="round"/>
<path d="M127.718 198.946C126.7 203.398 123.182 206.917 119.154 208.994C115.126 211.114 110.59 212.004 106.138 212.895C101.687 213.785 97.1505 214.76 93.1653 216.922C95.2308 224.125 96.8588 231.446 98.0408 238.845C98.1256 239.481 111.268 236.852 112.498 236.556C117.303 235.361 121.998 233.758 126.531 231.765C130.007 230.239 134.675 228.543 137.092 225.363C139.593 222.099 137.685 218.665 136.074 215.438C133.272 210.012 130.474 204.458 127.718 198.946Z" stroke="#171717" stroke-width="2.956" stroke-linecap="round" stroke-linejoin="round"/>
<path d="M101.009 192.164C96.8538 191.316 92.6142 190.468 88.7562 188.602C84.9405 186.779 81.4641 183.812 79.853 179.869C82.2272 175.968 84.6014 172.026 86.9755 168.125C86.2124 169.397 94.7764 174.061 95.7515 174.442C99.3551 175.884 102.832 175.968 106.605 176.053C106.011 181.31 102.789 187.161 101.009 192.164Z" stroke="#171717" stroke-width="2.956" stroke-linecap="round" stroke-linejoin="round"/>
<path d="M60.4317 212.641C55.7606 216.674 52.0521 221.703 49.5784 227.356C48.9848 228.756 48.4337 230.282 48.6457 231.766C48.9848 234.055 50.9351 235.751 52.9277 237.023C54.3267 237.913 55.5986 238.549 56.7009 239.524C56.8166 239.622 56.9532 239.691 57.1001 239.727C57.247 239.763 57.4002 239.764 57.5478 239.732C57.6954 239.699 57.8335 239.633 57.9514 239.538C58.0692 239.443 58.1635 239.322 58.2271 239.185C59.0327 237.277 60.9405 234.479 61.2796 233.716C62.5768 231.124 64.1702 228.691 66.0278 226.466C69.5466 222.311 70.5641 222.735 68.0628 219.937C65.731 217.351 62.9331 215.057 60.4317 212.641Z" stroke="#171717" stroke-width="2.956" stroke-linecap="round" stroke-linejoin="round"/>
<path d="M204.972 150.483C224.643 151.543 230.748 147.77 231.384 140.266L237.659 131.617H224.474L228.416 139.672C228.416 139.672 228.37 139.732 228.272 139.838C228.209 139.901 228.124 139.986 228.018 140.084C226.165 141.83 217.436 148.19 193.609 141.835C191.231 141.199 188.899 140.605 186.568 140.012C164.763 134.521 144.859 131.833 132.615 146.935C132.356 147.253 132.097 147.583 131.843 147.923C130.506 149.718 129.324 151.624 128.311 153.621L123.987 172.067L124.034 172.054L135.989 169.099C135.989 169.099 149.2 149.381 176.117 148.169C177.028 148.126 177.954 148.106 178.894 148.109C179.848 148.109 180.82 148.133 181.811 148.181C183.46 148.266 185.158 148.426 186.907 148.66C193.906 149.635 199.884 150.187 204.972 150.483Z" stroke="#171717" stroke-width="2.956" stroke-linecap="round" stroke-linejoin="round"/>
<path d="M164.293 90.291C162.704 94.4433 159.564 97.815 155.534 99.6944C150.616 101.857 144.978 101.39 139.593 100.797C134.209 100.203 128.651 99.5248 123.606 101.39C118.561 103.213 114.236 108.47 115.424 113.727" stroke="#171717" stroke-width="2.956" stroke-linecap="round" stroke-linejoin="round"/>
<path d="M164.293 90.2904C163.889 90.3201 163.484 90.3158 163.08 90.2777C160.452 90.0233 157.908 87.7339 157.95 85.063C157.993 82.392 161.385 80.1875 163.589 81.7137C165.412 82.9432 165.497 85.5717 165.073 87.6915C164.886 88.578 164.624 89.4471 164.293 90.2904Z" stroke="#171717" stroke-width="2.956" stroke-linecap="round" stroke-linejoin="round"/>
<path d="M168.295 66.7475C170.245 66.0692 172.534 66.9595 173.891 68.5281C175.248 70.0968 175.799 72.2166 175.926 74.294C176.05 76.7741 175.616 79.2501 174.654 81.5399C173.693 83.8292 172.23 85.8736 170.372 87.5215C168.651 88.9926 166.502 90.1288 164.293 90.2899" stroke="#171717" stroke-width="2.956" stroke-linecap="round" stroke-linejoin="round"/>
<path d="M331.528 178.312C332.092 177.873 332.618 177.387 333.1 176.858C338.4 171.007 338.103 160.917 332.465 155.359" stroke="#171717" stroke-width="2.956" stroke-linecap="round" stroke-linejoin="round"/>
<path d="M331.527 178.312C331.167 175.802 330.031 173.271 327.928 171.898C325.723 170.456 322.289 170.753 320.848 173C319.152 175.713 321.484 179.614 324.579 180.292C326.991 180.822 329.509 179.881 331.527 178.312Z" stroke="#171717" stroke-width="2.956" stroke-linecap="round" stroke-linejoin="round"/>
<path d="M289.514 207.553C289.726 201.872 294.008 196.572 299.519 195.173C305.751 193.562 312.369 196.615 318.729 195.597C326.445 194.368 332.465 186.44 331.575 178.681C331.562 178.558 331.545 178.435 331.528 178.312" stroke="#171717" stroke-width="2.956" stroke-linecap="round" stroke-linejoin="round"/>
<path d="M266.45 47.2456C266.471 45.7575 266.493 44.2821 266.514 42.8025C266.535 41.3314 266.556 39.8602 266.577 38.3806" stroke="#171717" stroke-width="2.956" stroke-linecap="round" stroke-linejoin="round"/>
<path d="M262.422 43.473C263.788 43.244 265.148 43.0236 266.514 42.8031C267.904 42.5784 269.299 42.3536 270.69 42.1162" stroke="#171717" stroke-width="2.956" stroke-linecap="round" stroke-linejoin="round"/>
<path d="M244.908 55.5126C244.349 54.6138 243.788 53.715 243.225 52.8162C242.801 52.1464 242.373 51.4765 241.941 50.8066" stroke="#171717" stroke-width="2.956" stroke-linecap="round" stroke-linejoin="round"/>
<path d="M240.966 54.8774C241.72 54.1906 242.471 53.5038 243.225 52.8169C243.912 52.1895 244.603 51.562 245.29 50.9346" stroke="#171717" stroke-width="2.956" stroke-linecap="round" stroke-linejoin="round"/>
<path d="M273.233 67.4686C273.59 66.697 273.941 65.9254 274.298 65.1538C274.662 64.3568 275.031 63.5597 275.396 62.7627" stroke="#171717" stroke-width="2.956" stroke-linecap="round" stroke-linejoin="round"/>
<path d="M276.413 66.663C275.713 66.1628 275.005 65.6582 274.297 65.1537C273.627 64.6747 272.957 64.1913 272.3 63.6953" stroke="#171717" stroke-width="2.956" stroke-linecap="round" stroke-linejoin="round"/>
<path d="M103.171 234.013L100.118 220.658" stroke="#171717" stroke-width="2.956" stroke-linecap="round" stroke-linejoin="round"/>
<path d="M107.114 233.248C106.647 231.298 106.223 229.306 105.757 227.355" stroke="#171717" stroke-width="2.956" stroke-linecap="round" stroke-linejoin="round"/>
<path d="M115.551 231.639C114.703 227.823 113.855 224.05 113.007 220.234" stroke="#171717" stroke-width="2.956" stroke-linecap="round" stroke-linejoin="round"/>
<path d="M90.9612 186.059C91.3016 184.569 92.0503 183.204 93.1234 182.116" stroke="#171717" stroke-width="2.956" stroke-linecap="round" stroke-linejoin="round"/>
<path d="M86.5938 184.447C87.6982 181.525 89.1803 178.76 91.0029 176.223" stroke="#171717" stroke-width="2.956" stroke-linecap="round" stroke-linejoin="round"/>
<path d="M63.4415 224.177C62.3718 222.535 60.9711 221.134 59.3291 220.064" stroke="#171717" stroke-width="2.956" stroke-linecap="round" stroke-linejoin="round"/>
<path d="M61.1096 227.144C60.6432 226.55 60.1769 225.957 59.7529 225.363" stroke="#171717" stroke-width="2.956" stroke-linecap="round" stroke-linejoin="round"/>
<path d="M220.065 228.925C221.04 215.099 222.693 201.278 225.025 187.627" stroke="#171717" stroke-width="2.956" stroke-linecap="round" stroke-linejoin="round"/>
<path d="M193.737 214.167C195.73 201.576 197.765 188.984 199.757 176.393" stroke="#171717" stroke-width="2.956" stroke-linecap="round" stroke-linejoin="round"/>
<path d="M190.341 200.6C191.655 192.333 192.931 184.066 194.246 175.841" stroke="#171717" stroke-width="2.956" stroke-linecap="round" stroke-linejoin="round"/>
<path d="M310.334 117.797C310.843 115.846 311.351 113.854 311.903 111.904" stroke="#171717" stroke-width="2.956" stroke-linecap="round" stroke-linejoin="round"/>
<path d="M299.815 113.43C298.543 113.006 297.271 112.539 296.042 112.115L296.254 112.327" stroke="#171717" stroke-width="2.956" stroke-linecap="round" stroke-linejoin="round"/>
<path d="M288.242 133.355C288.962 131.66 289.641 129.921 290.361 128.226" stroke="#171717" stroke-width="2.956" stroke-linecap="round" stroke-linejoin="round"/>
<path d="M277.981 128.607C276.885 128.013 275.666 127.68 274.42 127.632" stroke="#171717" stroke-width="2.956" stroke-linecap="round" stroke-linejoin="round"/>
<path d="M267.51 143.956L269.291 140.013" stroke="#171717" stroke-width="2.956" stroke-linecap="round" stroke-linejoin="round"/>
<path d="M255.512 137.341C254.24 136.747 252.925 136.196 251.654 135.603" stroke="#171717" stroke-width="2.956" stroke-linecap="round" stroke-linejoin="round"/>
<path d="M237.065 150.865C237.632 149.285 238.544 147.85 239.736 146.668" stroke="#171717" stroke-width="2.956" stroke-linecap="round" stroke-linejoin="round"/>
<path d="M247.622 169.439C246.519 168.76 245.417 168.124 244.315 167.446" stroke="#171717" stroke-width="2.956" stroke-linecap="round" stroke-linejoin="round"/>
<path d="M238.295 184.108C239.016 182.964 239.694 181.861 240.415 180.717" stroke="#171717" stroke-width="2.956" stroke-linecap="round" stroke-linejoin="round"/>
<path d="M251.612 198.438C250.632 197.378 249.657 196.361 248.64 195.301" stroke="#171717" stroke-width="2.956" stroke-linecap="round" stroke-linejoin="round"/>
<path d="M236.048 211.411C236.896 210.351 237.701 209.291 238.549 208.231" stroke="#171717" stroke-width="2.956" stroke-linecap="round" stroke-linejoin="round"/>
<path d="M217.012 156.716C216.143 156.052 215.421 155.215 214.893 154.257" stroke="#171717" stroke-width="2.956" stroke-linecap="round" stroke-linejoin="round"/>
<path d="M208.914 138.444C209.635 137.384 210.356 136.324 211.076 135.306" stroke="#171717" stroke-width="2.956" stroke-linecap="round" stroke-linejoin="round"/>
<path d="M189.663 159.9C189.324 158.67 188.985 157.394 188.688 156.165" stroke="#171717" stroke-width="2.956" stroke-linecap="round" stroke-linejoin="round"/>
<path d="M173.383 172.279C174.443 171.346 175.46 170.456 176.52 169.523" stroke="#171717" stroke-width="2.956" stroke-linecap="round" stroke-linejoin="round"/>
<path d="M183.558 188.814C182.425 187.554 181.52 186.104 180.887 184.532" stroke="#171717" stroke-width="2.956" stroke-linecap="round" stroke-linejoin="round"/>
<path d="M168.083 207.892C169.057 206.283 170.209 204.79 171.517 203.44" stroke="#171717" stroke-width="2.956" stroke-linecap="round" stroke-linejoin="round"/>
<path d="M180.293 202.338L178.513 200.176" stroke="#171717" stroke-width="2.956" stroke-linecap="round" stroke-linejoin="round"/>
<path d="M333.397 26.8062L333.143 14.8506" stroke="#171717" stroke-width="2.956" stroke-linecap="round" stroke-linejoin="round"/>
<path d="M323.052 27.6123C317.838 20.9986 312.665 14.4272 307.447 7.81348" stroke="#171717" stroke-width="2.956" stroke-linecap="round" stroke-linejoin="round"/>
<path d="M319.915 38.1685C316.1 37.1086 312.242 36.0488 308.422 35.0312" stroke="#171717" stroke-width="2.956" stroke-linecap="round" stroke-linejoin="round"/>
<path d="M364.134 121.824C368.374 122.969 373.296 120.001 374.229 115.677" stroke="#171717" stroke-width="2.956" stroke-linecap="round" stroke-linejoin="round"/>
<path d="M283.111 155.741C294.022 153.167 303.924 147.413 311.563 139.207" stroke="#171717" stroke-width="2.956" stroke-linecap="round" stroke-linejoin="round"/>
<path d="M167.702 325.677C177.212 326.405 186.666 323.681 194.33 318.003" stroke="#171717" stroke-width="2.956" stroke-linecap="round" stroke-linejoin="round"/>
<path d="M181.48 331.23C183.685 330.213 185.932 329.195 188.137 328.178" stroke="#171717" stroke-width="2.956" stroke-linecap="round" stroke-linejoin="round"/>
<path d="M100.457 311.685C98.4134 309.045 97.4578 305.723 97.7864 302.4" stroke="#171717" stroke-width="2.956" stroke-linecap="round" stroke-linejoin="round"/>
<path d="M94.7337 313.89C93.6946 313.246 92.8552 312.327 92.3087 311.234C91.7622 310.141 91.5303 308.917 91.6388 307.7" stroke="#171717" stroke-width="2.956" stroke-linecap="round" stroke-linejoin="round"/>
<path d="M306.429 359.131L306.391 359.207C306.387 359.224 306.379 359.239 306.37 359.254C305.973 360.12 305.521 360.959 305.017 361.768C303.668 363.963 301.968 365.922 299.985 367.568" stroke="#171717" stroke-width="2.956" stroke-linecap="round" stroke-linejoin="round"/>
<path d="M298.671 358.707C296.312 361.803 293.244 364.289 289.726 365.956" stroke="#171717" stroke-width="2.956" stroke-linecap="round" stroke-linejoin="round"/>
<path d="M260.472 375.03C273.657 375.242 286.8 375.454 299.985 375.623C304.225 375.708 308.507 375.75 312.581 374.606C316.655 373.461 320.509 370.917 322.29 367.102" stroke="#171717" stroke-width="2.956" stroke-linecap="round" stroke-linejoin="round"/>
<path d="M111.438 278.023C111.433 278.028 111.429 278.028 111.425 278.032C111.421 278.036 111.417 278.036 111.412 278.04C108.241 279.859 105.494 282.314 102.789 284.722C98.507 288.495 94.2674 292.268 89.9854 296.042C88.4168 297.441 86.8482 298.797 85.5763 300.451C84.2612 302.078 83.3984 304.023 83.0749 306.089C82.9215 308.329 83.4539 310.562 84.6012 312.491C85.7035 314.441 87.2297 316.052 88.8408 317.621" stroke="#171717" stroke-width="2.956" stroke-linecap="round" stroke-linejoin="round"/>
<path d="M228.416 139.546C229.391 139.631 230.409 139.758 231.384 139.843" stroke="#171717" stroke-width="2.956" stroke-linecap="round" stroke-linejoin="round"/>
<path fill-rule="evenodd" clip-rule="evenodd" d="M204.972 150.441C224.643 151.501 230.748 147.728 231.384 140.224L231.567 139.974L231.384 139.842C230.897 139.8 230.399 139.747 229.901 139.694C229.402 139.641 228.904 139.588 228.417 139.546L228.459 139.63C228.459 139.63 228.4 139.707 228.273 139.838C228.209 139.902 228.124 139.987 228.018 140.084C226.165 141.831 217.436 148.19 193.61 141.835C191.232 141.199 188.9 140.606 186.569 140.012H186.568C164.764 134.522 144.859 131.834 132.615 146.935C132.356 147.253 132.098 147.584 131.843 147.923C130.524 149.707 129.357 151.599 128.354 153.579L124.034 172.055L135.99 169.1C135.99 169.1 149.2 149.382 176.117 148.169C177.027 148.125 177.953 148.105 178.894 148.11C179.847 148.111 180.819 148.135 181.811 148.182C183.473 148.259 185.186 148.419 186.949 148.661C193.949 149.594 199.927 150.187 204.972 150.441ZM146.129 141.727C159.695 138.753 173.843 139.954 186.714 145.172C187.034 145.301 187.4 145.147 187.529 144.826C187.659 144.506 187.505 144.14 187.184 144.01C174.079 138.698 159.673 137.475 145.86 140.502C145.522 140.576 145.308 140.91 145.382 141.248C145.457 141.587 145.791 141.801 146.129 141.727Z" fill="white"/>
<g opacity="0.1">
<path d="M235.635 78.8988C234.509 78.6101 233.336 78.5541 232.188 78.7347C231.039 78.9149 229.94 79.3278 228.956 79.9481C226.544 81.4849 225.219 83.4648 224.378 86.1841C223.411 89.3163 223.31 92.7092 223.083 95.9597C222.834 99.5239 222.686 103.094 222.665 106.666C222.646 109.968 222.87 113.27 222.844 116.568C222.834 117.785 222.786 118.815 221.665 119.423C220.617 119.991 219.359 120.14 218.301 120.727C217.258 121.299 216.397 122.153 215.817 123.191C215.07 124.554 215.185 126.029 214.73 127.456C214.036 129.634 209.801 129.02 207.921 129.307C201.029 130.415 194.517 133.204 188.961 137.429C186.412 139.337 188.905 143.689 191.489 141.754C197.745 137.067 204.691 134.973 212.337 133.91C215.337 133.494 218.494 132.538 219.693 129.459C220.173 128.229 219.886 126.152 221.013 125.366C222.158 124.571 223.805 124.489 225.016 123.713C228.208 121.672 228.285 117.877 228.174 114.492C228.038 110.371 228.038 106.252 228.145 102.131C228.256 97.8434 228.519 93.5665 228.936 89.2993C229.275 85.8411 230.437 80.0486 235.116 80.7731C236.325 80.9605 236.87 79.2498 235.634 78.8954L235.635 78.8988Z" fill="#171717"/>
</g>
<g opacity="0.1">
<path d="M180.918 146.662C174.826 149.221 172.847 157.735 171.467 163.479C169.544 171.477 167.792 179.52 166.118 187.574C164.457 195.563 162.794 203.592 162.18 211.744C161.891 215.38 162.236 219.038 163.2 222.555C164.048 225.714 164.281 228.475 166.538 231.045C168.043 232.759 170.537 230.249 169.039 228.544C166.941 226.154 166.535 222.502 167.197 219.479C167.899 216.276 167.92 212.997 168.244 209.716C168.98 202.246 170.612 194.88 172.156 187.545C173.67 180.357 175.214 173.175 176.853 166.015C177.471 163.024 178.307 160.083 179.354 157.214C179.913 155.778 180.62 154.435 181.286 153.049C181.935 151.701 182.84 150.509 183.361 149.109C183.854 147.783 182.282 146.09 180.916 146.664L180.918 146.662Z" fill="#171717"/>
</g>
<g opacity="0.1">
<path d="M248.824 153.944C252.085 153.56 255.372 153.295 258.579 152.573C261.941 151.773 265.259 150.802 268.521 149.663C274.833 147.509 281.017 145.001 287.046 142.149C293.14 139.298 299.151 136.208 304.95 132.79C310.361 129.601 315.699 125.906 319.78 121.073C322.065 118.416 323.932 115.425 325.315 112.205C326.57 109.225 327.565 105.441 326.322 102.321C325.771 100.938 323.694 100.292 322.872 101.87C321.231 105.024 320.717 108.62 319.036 111.79C317.383 114.845 315.236 117.604 312.682 119.957C306.993 125.305 299.874 128.929 293.034 132.563C286.017 136.351 278.773 139.701 271.343 142.594C267.634 144.009 263.871 145.281 260.054 146.373C256.119 147.498 252.24 148.812 248.253 149.727C245.946 150.256 246.388 154.229 248.824 153.942V153.944Z" fill="#171717"/>
</g>
</g>
</svg>
