<svg width="451" height="451" viewBox="0 0 451 451" fill="none" xmlns="http://www.w3.org/2000/svg">
<mask id="mask0_2465_1480" style="mask-type:luminance" maskUnits="userSpaceOnUse" x="0" y="0" width="348" height="348">
<path d="M348 0H0V348H348V0Z" fill="white"/>
</mask>
<g mask="url(#mask0_2465_1480)">
<mask id="mask1_2465_1480" style="mask-type:luminance" maskUnits="userSpaceOnUse" x="21" y="13" width="306" height="322">
<path d="M326.612 13.7754H21.3875V334.588H326.612V13.7754Z" fill="white"/>
</mask>
<g mask="url(#mask1_2465_1480)">
<path fill-rule="evenodd" clip-rule="evenodd" d="M125.552 283.39C123.639 271.545 123.293 259.415 122.96 247.385C126.214 245.516 128.741 242.354 129.471 238.659C131.554 239.963 133.957 240.67 136.414 240.7C138.872 240.73 141.291 240.083 143.406 238.829C147.172 236.526 149.186 232.125 149.186 227.711C151.383 233.561 153.591 239.469 154.537 245.643C155.492 251.839 155.096 258.413 152.269 264.005C150.495 267.525 147.864 270.482 145.232 273.442C144.128 274.683 143.024 275.924 141.982 277.208C140.477 279.028 139.179 281.009 138.111 283.116L138.216 283.165C139.944 282.82 141.697 282.612 143.458 282.543C151.572 282.213 159.557 284.653 166.102 289.462C169.403 291.933 172.241 294.968 174.488 298.426L174.584 298.36C181.122 288.604 181.245 277.783 177.019 266.823C176.355 265.105 175.562 263.431 174.769 261.758C173.327 258.717 171.888 255.681 171.239 252.395C170.605 249.19 170.758 245.918 170.911 242.64C171.017 240.365 171.123 238.087 170.967 235.825C170.096 223.283 160.523 212.068 148.52 208.316C136.517 204.563 122.789 207.974 113.256 216.176C103.723 224.378 98.358 236.915 97.9509 249.488C97.9227 250.368 97.9161 251.255 97.9096 252.142C97.886 255.372 97.8625 258.616 96.7909 261.639C95.9068 264.128 94.3709 266.291 92.8332 268.457C92.131 269.446 91.4281 270.435 90.7872 271.457C84.3369 281.734 84.604 295.827 91.4397 305.85C93.9348 301.726 97.1592 298.09 100.955 295.12C106.648 290.628 113.286 287.532 120.153 285.115C121.848 284.515 123.56 283.959 125.272 283.433L125.552 283.39ZM154.742 213.993C154.453 213.774 154.041 213.83 153.821 214.119C153.602 214.408 153.658 214.82 153.947 215.04C157.694 217.884 160.733 221.555 162.828 225.767C164.922 229.98 166.015 234.619 166.02 239.323C166.021 239.686 166.316 239.98 166.678 239.979C167.041 239.978 167.335 239.684 167.334 239.321C167.328 234.415 166.188 229.576 164.004 225.183C161.819 220.789 158.65 216.96 154.742 213.993Z" fill="#171717"/>
<path fill-rule="evenodd" clip-rule="evenodd" d="M280.553 205.093C280.515 204.628 280.476 204.157 280.387 203.708C280.331 203.399 280.239 203.097 280.113 202.809C279.132 200.584 276.179 200.234 273.75 200.208C273.139 200.199 272.529 200.193 271.918 200.187C271.462 200.182 271.006 200.177 270.549 200.171C264.468 200.109 258.388 200.044 252.31 199.979L247.428 199.926C245.873 199.909 244.288 199.896 242.795 200.338C241.463 200.687 240.305 201.515 239.546 202.664C239.448 202.83 239.362 203.002 239.287 203.18C239.097 203.635 238.992 204.125 238.888 204.612C238.741 205.307 238.593 205.997 238.2 206.578C237.699 207.266 236.958 207.741 236.124 207.909C235.3 208.094 234.451 208.146 233.61 208.063C232.631 207.984 231.66 207.831 230.689 207.679C229.445 207.483 228.202 207.288 226.946 207.248C224.708 207.178 222.308 207.699 220.775 209.328C219.387 210.799 218.936 212.906 218.695 214.916C218.267 218.501 218.314 222.128 218.836 225.701L218.612 226.047C229.885 233.264 243.011 237.053 256.396 236.953C269.78 236.854 282.848 232.87 294.012 225.486C294.98 222.548 294.516 215.554 292.769 213.032C291.925 211.838 290.832 210.84 289.566 210.108C288.3 209.376 286.89 208.928 285.434 208.793C285.272 208.779 285.105 208.767 284.943 208.762C284.759 208.756 284.571 208.754 284.381 208.751C283.387 208.739 282.359 208.727 281.608 208.109C280.745 207.393 280.651 206.257 280.553 205.093ZM287.018 211.965C286.701 211.788 286.301 211.902 286.125 212.219C285.949 212.536 286.062 212.936 286.379 213.113C289.575 214.892 291.121 219.211 289.78 222.614C289.647 222.952 289.812 223.333 290.15 223.466C290.487 223.599 290.869 223.433 291.002 223.096C292.584 219.08 290.79 214.064 287.018 211.965Z" fill="white"/>
<path fill-rule="evenodd" clip-rule="evenodd" d="M173.814 140.326L173.402 140.028C160.056 131.839 144.506 127.971 128.878 128.952C128.821 129.569 128.599 130.159 128.234 130.66C127.219 132 125.301 132.166 123.619 132.214C111.413 132.576 99.2058 132.937 86.9972 133.296C85.6878 133.336 84.2425 133.331 83.2398 132.482C82.9545 132.238 82.7182 131.943 82.5435 131.612L81.8185 131.98C69.964 134.503 59.0295 140.231 50.2063 148.541C58.4195 156.988 68.3697 163.549 79.3687 167.772C90.3677 171.994 102.153 173.776 113.908 172.995C125.664 172.213 137.11 168.887 147.453 163.247C157.797 157.606 166.791 149.786 173.814 140.326ZM132.658 133.44C143.696 133.343 154.605 135.814 164.524 140.66C164.849 140.819 165.243 140.684 165.402 140.358C165.561 140.032 165.426 139.638 165.1 139.479C154.999 134.545 143.888 132.027 132.646 132.126C132.283 132.13 131.992 132.426 131.995 132.789C131.998 133.151 132.295 133.443 132.658 133.44Z" fill="white"/>
<path d="M285.453 208.619L285.436 208.794C285.274 208.781 285.107 208.768 284.945 208.763C283.789 208.724 282.502 208.846 281.608 208.111C280.4 207.108 280.697 205.283 280.387 203.709C281.425 203.639 282.464 203.571 283.504 203.504C284.481 203.438 285.576 203.411 286.298 204.073C286.964 204.686 287.082 205.728 286.819 206.595C286.557 207.463 286.012 207.909 285.453 208.619Z" fill="white"/>
<path d="M279.087 161.845C283.623 163.43 286.181 169.168 284.333 173.603C282.485 178.038 276.599 180.255 272.282 178.139L271.585 178.135C271.651 171.733 271.499 165.334 271.13 158.938C270.994 156.569 270.78 154.064 269.39 152.137C267.958 150.153 265.541 149.159 263.203 148.437C255.259 145.997 246.835 145.565 238.685 147.18C238.698 148.992 238.711 150.804 238.724 152.614C235.913 153.31 232.812 153.131 230.278 151.721C227.725 150.302 225.855 147.548 225.877 144.627C225.898 141.706 228.052 138.833 230.93 138.334C229.432 135.045 228.802 131.179 230.102 127.807C231.403 124.435 234.998 121.825 238.558 122.442C241.974 123.037 244.299 126.139 246.261 128.992C245.99 125.445 248.862 122.034 252.361 121.386C255.86 120.738 259.595 122.687 261.365 125.778C263.134 128.869 262.998 132.868 261.334 136.017C263.786 134.409 266.707 133.367 269.628 133.613C272.549 133.858 275.426 135.553 276.621 138.228C277.817 140.903 276.95 144.477 274.405 145.935C278.495 144.954 283.119 147.629 284.306 151.667C285.493 155.704 283.054 160.457 279.087 161.845Z" fill="#171717"/>
<path d="M239.29 203.178C238.83 204.282 238.874 205.587 238.202 206.576C237.702 207.265 236.961 207.74 236.127 207.908L236.096 207.794C235.47 207.649 233.848 207.457 233.289 207.137C233.001 206.99 232.748 206.783 232.546 206.532C232.344 206.279 232.197 205.987 232.116 205.674C231.932 204.768 232.551 203.844 233.359 203.401C234.202 203.009 235.131 202.842 236.057 202.915C236.979 202.986 237.906 202.95 238.82 202.81L239.545 202.661C239.449 202.828 239.364 203.001 239.29 203.178Z" fill="white"/>
<path d="M112.639 42.9238C113.108 40.0818 113.668 37.1434 115.437 34.8795C117.268 32.541 120.837 31.2711 123.293 32.9441C124.997 34.1041 125.698 36.3553 125.509 38.4092C125.321 40.4631 124.389 42.3634 123.399 44.173C125.198 42.0052 127.068 39.7867 129.569 38.4817C132.069 37.1767 135.38 37.0147 137.521 38.8497C139.991 40.9735 139.973 44.989 138.375 47.8266C136.777 50.6643 133.989 52.5953 131.299 54.4303L131.894 54.8899C133.422 55.2579 135.003 54.6971 136.558 54.4433C138.112 54.1896 139.991 54.3908 140.814 55.7353C141.637 57.0707 140.919 58.9274 139.658 59.8602C138.397 60.7929 136.764 61.0292 135.199 61.2014C133.459 61.3895 131.722 61.5255 129.975 61.6263C118.59 62.2831 107.09 61.4088 95.7837 62.9708C92.9591 63.3605 89.859 64.0829 88.2437 66.4301C86.8905 68.3876 86.9387 70.9537 87.0438 73.3314C87.3679 80.9247 87.6934 88.5165 88.0204 96.1069L87.6177 96.1243C86.2953 99.3473 81.5132 100.451 78.9079 98.1344C76.4994 95.9956 76.771 91.6753 79.2233 89.6917C79.4596 89.5743 79.6793 89.4257 79.8758 89.2495C79.6456 89.3774 79.4274 89.5253 79.2233 89.6917C76.9504 90.8916 73.6092 89.438 72.807 86.8849C71.9707 84.2049 73.6259 81.1748 76.1308 79.8886C76.254 79.8397 76.374 79.7824 76.49 79.7179C76.3675 79.7705 76.2493 79.8267 76.1308 79.8886C74.2041 80.6861 71.7474 79.6567 70.7096 77.813C69.6105 75.8511 69.9389 73.3024 71.1301 71.3887C72.3213 69.4751 74.2476 68.1306 76.2798 67.1631C74.0685 66.2434 73.0698 63.4192 73.7223 61.1155C74.3748 58.8118 76.3367 57.0606 78.5218 56.0767C80.707 55.0929 83.1154 54.7674 85.4887 54.4477C84.867 51.7151 84.8406 48.768 85.9353 46.1845C87.0301 43.6009 89.3791 41.464 92.158 41.1004C94.5534 40.785 97.1456 42.0244 98.2625 44.1132C98.3705 44.4804 98.5097 44.8378 98.6786 45.1818C98.584 44.8099 98.4441 44.451 98.2625 44.1132C97.933 43.0557 97.8452 41.9378 98.0058 40.842C98.1664 39.7461 98.5713 38.7003 99.1905 37.7821C99.81 36.8639 100.627 36.0967 101.583 35.537C102.539 34.9773 103.608 34.6395 104.712 34.5487C105.816 34.4579 106.926 34.6163 107.96 35.0122C108.994 35.4082 109.927 36.0316 110.688 36.8363C111.448 37.6411 112.019 38.6064 112.356 39.6613C112.694 40.7162 112.79 41.833 112.638 42.9303L112.639 42.9238Z" fill="#171717"/>
<path d="M128.881 128.954C128.824 129.571 128.602 130.161 128.237 130.662C127.222 132.003 125.303 132.168 123.622 132.216C111.418 132.575 99.2102 132.936 86.9997 133.298C85.6904 133.337 84.2447 133.334 83.2424 132.483C82.9575 132.24 82.7211 131.945 82.5461 131.613C82.0204 130.632 81.9592 129.363 81.9505 128.211C81.9331 126.416 81.9766 124.449 83.1373 123.079C84.4597 121.524 86.7326 121.292 88.7687 121.178H89.0798C94.2907 121.156 99.5981 120.613 104.765 120.018C107.796 119.709 110.843 119.607 113.887 119.711C116.598 119.768 119.308 119.887 121.971 119.9C123.354 119.908 124.822 119.939 125.995 120.67C127.777 121.778 128.302 124.086 128.675 126.148C128.875 127.069 128.945 128.014 128.881 128.954Z" fill="white"/>
<path d="M120.197 285.233C120.111 290.349 121.156 295.421 123.258 300.087C124.3 302.381 125.615 304.593 127.436 306.34C129.257 308.087 131.627 309.335 134.145 309.471C137.792 309.672 141.309 307.456 143.288 304.387C145.267 301.317 145.867 297.52 145.652 293.874C145.438 290.228 144.453 286.675 143.48 283.154L143.459 282.545C151.573 282.216 159.558 284.656 166.103 289.464C169.403 291.936 172.242 294.97 174.488 298.428C177.627 303.211 179.565 308.681 180.137 314.373L180.588 314.876C167.901 326.369 151.549 332.99 134.44 333.56C117.33 334.131 100.573 328.615 87.1482 317.994L87.3294 317.77C87.8351 313.549 89.2369 309.485 91.4413 305.85C93.9367 301.726 97.1612 298.09 100.957 295.12C106.648 290.627 113.288 287.531 120.155 285.115L120.197 285.233Z" fill="white"/>
<path d="M107.771 91.5534C109.469 91.8006 111.202 91.503 112.72 90.7037C111.546 84.8486 110.373 78.9939 109.199 73.1395C108.915 71.7337 108.656 70.1837 109.37 68.9399C110.233 67.4381 112.173 66.9781 113.907 66.8686C117.253 66.6613 120.602 67.2155 123.703 68.489" stroke="#171717" stroke-width="3.624" stroke-linecap="round" stroke-linejoin="round"/>
<path d="M114.562 74.7109C115.596 74.1965 116.735 73.929 117.89 73.9297C119.045 73.9304 120.184 74.1994 121.218 74.7152" stroke="#171717" stroke-width="3.624" stroke-linecap="round" stroke-linejoin="round"/>
<path d="M104.45 75.412C103.911 74.8903 103.271 74.484 102.57 74.2179C101.868 73.9522 101.12 73.8322 100.37 73.8659C99.6206 73.8996 98.8858 74.0859 98.2108 74.4136C97.5358 74.7413 96.9352 75.2032 96.4451 75.7712" stroke="#171717" stroke-width="3.624" stroke-linecap="round" stroke-linejoin="round"/>
<path d="M104.025 101.69C103.36 101.952 102.65 102.078 101.936 102.061C101.222 102.045 100.518 101.886 99.866 101.593C99.2142 101.3 98.6277 100.88 98.1405 100.358C97.6533 99.8352 97.2752 99.2204 97.0291 98.5498" stroke="#171717" stroke-width="3.624" stroke-linecap="round" stroke-linejoin="round"/>
<path d="M113.898 119.149C113.582 117.441 113.267 115.712 113.394 113.982C113.521 112.252 114.134 110.492 115.417 109.327C117.48 107.453 120.703 107.518 123.002 105.942C125.979 103.901 126.566 99.8243 126.89 96.229C127.92 84.7298 128.95 73.2317 129.982 61.7354" stroke="#171717" stroke-width="3.624" stroke-linecap="round" stroke-linejoin="round"/>
<path d="M89.0798 120.795C88.7252 112.567 88.3718 104.336 88.0202 96.1019C87.6961 88.5086 87.3706 80.9168 87.0436 73.3264C86.9385 70.9488 86.8903 68.3826 88.2435 66.4251C89.8595 64.0779 92.9596 63.3555 95.7835 62.9658C107.09 61.4023 118.589 62.277 129.975 61.6213C131.722 61.5205 133.461 61.3849 135.199 61.1964C136.763 61.0257 138.391 60.7893 139.658 59.8552C140.925 58.921 141.637 57.0657 140.814 55.7303C139.991 54.3858 138.112 54.1846 136.557 54.4383C135.003 54.6921 133.422 55.2529 131.894 54.8849" stroke="#171717" stroke-width="3.624" stroke-linecap="round" stroke-linejoin="round"/>
<path d="M79.2227 89.6875C76.7704 91.6711 76.4989 95.995 78.9073 98.1301C81.513 100.447 86.2947 99.343 87.6171 96.1201" stroke="#171717" stroke-width="3.624" stroke-linecap="round" stroke-linejoin="round"/>
<path d="M79.2227 89.6871C79.459 89.57 79.6787 89.4214 79.8752 89.2449C79.645 89.3728 79.4267 89.5207 79.2227 89.6871Z" stroke="#171717" stroke-width="3.624" stroke-linecap="round" stroke-linejoin="round"/>
<path d="M76.1307 79.8829C73.6258 81.1705 71.9706 84.2007 72.8069 86.8792C73.6084 89.4323 76.9496 90.8859 79.2232 89.686" stroke="#171717" stroke-width="3.624" stroke-linecap="round" stroke-linejoin="round"/>
<path d="M76.1311 79.8827C76.2544 79.8337 76.3743 79.7768 76.4903 79.7119C76.3675 79.7645 76.2493 79.8221 76.1311 79.8827Z" stroke="#171717" stroke-width="3.624" stroke-linecap="round" stroke-linejoin="round"/>
<path d="M98.2627 44.1054C97.1462 42.0167 94.5536 40.7773 92.1582 41.0927C89.3775 41.4552 87.0303 43.5976 85.9356 46.1767C84.8408 48.7559 84.8669 51.7074 85.489 54.4417C83.1157 54.7615 80.704 55.0855 78.5221 56.0708C76.3402 57.0561 74.3751 58.8077 73.7226 61.1096C73.0701 63.4114 74.0684 66.2375 76.28 67.1572C74.25 68.125 72.3215 69.4735 71.1303 71.3828C69.9392 73.2921 69.6107 75.8452 70.7098 77.807C71.7477 79.6507 74.2043 80.6799 76.131 79.8827" stroke="#171717" stroke-width="3.624" stroke-linecap="round" stroke-linejoin="round"/>
<path d="M98.2625 44.1055C98.3705 44.4727 98.5097 44.8305 98.6786 45.1741C98.584 44.8022 98.4441 44.4433 98.2625 44.1055Z" stroke="#171717" stroke-width="3.624" stroke-linecap="round" stroke-linejoin="round"/>
<path d="M112.639 42.924C112.792 41.8267 112.697 40.7087 112.359 39.6531C112.022 38.5975 111.452 37.6311 110.691 36.8256C109.93 36.0203 108.997 35.3963 107.962 34.9999C106.927 34.6035 105.817 34.4448 104.713 34.5356C103.608 34.6264 102.538 34.9644 101.582 35.5245C100.626 36.0847 99.808 36.8524 99.1885 37.7714C98.5693 38.6907 98.1644 39.7369 98.0042 40.8334C97.8439 41.93 97.9324 43.0483 98.2626 44.1061" stroke="#171717" stroke-width="3.624" stroke-linecap="round" stroke-linejoin="round"/>
<path d="M131.298 54.4284C133.986 52.5934 136.771 50.6584 138.374 47.8247C139.977 44.9911 139.99 40.9735 137.52 38.8478C135.379 37.0128 132.064 37.1749 129.568 38.4799C127.072 39.7849 125.197 42.0048 123.398 44.1711C124.387 42.3626 125.319 40.4577 125.509 38.4074C125.698 36.3571 124.996 34.1025 123.293 32.9422C120.836 31.2692 117.267 32.5394 115.436 34.8775C113.667 37.1415 113.107 40.0799 112.638 42.9219C112.621 43.0227 112.607 43.1235 112.59 43.2243" stroke="#171717" stroke-width="3.624" stroke-linecap="round" stroke-linejoin="round"/>
<path d="M89.0797 121.178H88.7687C86.7326 121.292 84.4597 121.524 83.1373 123.079C81.9773 124.449 81.9331 126.415 81.9505 128.211C81.9592 129.362 82.0204 130.632 82.546 131.613C82.7208 131.945 82.9571 132.24 83.2424 132.483C84.2451 133.333 85.6904 133.337 86.9997 133.298C99.2083 132.938 111.416 132.578 123.622 132.216C125.303 132.168 127.221 132.001 128.237 130.662C128.601 130.161 128.824 129.571 128.881 128.954C128.945 128.013 128.876 127.068 128.675 126.147C128.303 124.084 127.777 121.777 125.995 120.669C124.822 119.938 123.354 119.908 121.971 119.898C119.309 119.885 116.598 119.767 113.887 119.71C110.844 119.605 107.796 119.707 104.766 120.017C99.598 120.613 94.2907 121.156 89.0797 121.178Z" stroke="#171717" stroke-width="3.624" stroke-linecap="round" stroke-linejoin="round"/>
<path d="M50.0537 148.686C50.1063 148.638 50.1545 148.589 50.207 148.541C59.0303 140.231 69.9647 134.503 81.8192 131.979" stroke="#171717" stroke-width="3.624" stroke-linecap="round" stroke-linejoin="round"/>
<path d="M128.61 128.972C128.702 128.967 128.791 128.959 128.881 128.954C144.508 127.973 160.057 131.84 173.403 140.029" stroke="#171717" stroke-width="3.624" stroke-linecap="round" stroke-linejoin="round"/>
<path d="M242.552 151.257C246.427 151.616 250.303 151.976 254.178 152.339C253.009 157.585 251.841 162.829 250.675 168.071C250.368 169.446 250.197 171.189 251.367 171.968C252.571 172.77 254.423 171.929 255.536 172.857" stroke="#171717" stroke-width="3.624" stroke-linecap="round" stroke-linejoin="round"/>
<path d="M258.303 180.592C258.067 180.588 257.826 180.579 257.589 180.575C258.307 180.876 259.078 181.032 259.857 181.034C260.636 181.037 261.408 180.885 262.128 180.589C262.848 180.292 263.503 179.856 264.054 179.306C264.605 178.756 265.042 178.102 265.34 177.382" stroke="#171717" stroke-width="3.624" stroke-linecap="round" stroke-linejoin="round"/>
<path d="M260.313 158.337C260.467 157.409 260.621 156.48 260.777 155.552" stroke="#171717" stroke-width="3.624" stroke-linecap="round" stroke-linejoin="round"/>
<path d="M247.509 158.951C247.423 157.911 247.644 156.87 248.144 155.955" stroke="#171717" stroke-width="3.624" stroke-linecap="round" stroke-linejoin="round"/>
<path d="M252.317 199.399C252.961 196.789 253.605 194.136 253.517 191.452C253.429 188.767 252.51 185.986 250.478 184.222C248.004 182.072 244.308 181.734 241.899 179.509C239.083 176.908 238.864 172.608 238.838 168.776C238.799 163.39 238.761 158.002 238.724 152.613C238.711 150.801 238.698 148.989 238.685 147.179C246.836 145.564 255.26 145.995 263.203 148.436C265.541 149.158 267.959 150.152 269.39 152.136C270.778 154.063 270.993 156.568 271.13 158.937C271.499 165.33 271.65 171.729 271.586 178.134C271.52 185.382 271.177 192.619 270.557 199.846" stroke="#171717" stroke-width="3.624" stroke-linecap="round" stroke-linejoin="round"/>
<path d="M238.786 152.601L238.725 152.614C235.914 153.31 232.813 153.13 230.278 151.721C227.725 150.302 225.856 147.548 225.877 144.627C225.899 141.706 228.052 138.833 230.931 138.334C229.433 135.045 228.802 131.179 230.103 127.807C231.404 124.435 234.999 121.825 238.559 122.442C241.975 123.037 244.3 126.139 246.262 128.993C245.99 125.446 248.863 122.033 252.362 121.386C255.861 120.74 259.596 122.687 261.365 125.778C263.135 128.87 262.999 132.868 261.335 136.016C263.787 134.41 266.708 133.367 269.629 133.612C272.55 133.857 275.426 135.552 276.622 138.228C277.817 140.903 276.95 144.477 274.406 145.935C278.496 144.954 283.12 147.63 284.307 151.667C285.494 155.705 283.054 160.456 279.087 161.844C283.624 163.429 286.181 169.166 284.333 173.602C282.485 178.037 276.6 180.253 272.282 178.138" stroke="#171717" stroke-width="3.624" stroke-linecap="round" stroke-linejoin="round"/>
<path d="M218.842 225.7C218.32 222.127 218.273 218.5 218.701 214.915C218.942 212.905 219.393 210.799 220.781 209.327C222.314 207.698 224.714 207.177 226.951 207.247C229.189 207.317 231.383 207.882 233.616 208.062C234.457 208.145 235.305 208.093 236.13 207.909C236.964 207.74 237.705 207.265 238.206 206.578C238.875 205.588 238.832 204.283 239.293 203.179C239.367 203.001 239.454 202.829 239.552 202.663C240.311 201.514 241.468 200.686 242.801 200.337C244.294 199.895 245.879 199.908 247.434 199.925L252.316 199.978C258.394 200.044 264.474 200.108 270.555 200.171C271.624 200.184 272.688 200.192 273.756 200.207C276.185 200.233 279.138 200.584 280.119 202.808C280.243 203.098 280.334 203.4 280.39 203.71C280.701 205.283 280.403 207.109 281.612 208.112C282.505 208.847 283.793 208.725 284.949 208.764C285.111 208.768 285.277 208.782 285.439 208.795C286.895 208.929 288.305 209.378 289.571 210.11C290.838 210.842 291.93 211.839 292.774 213.034C294.521 215.556 294.985 222.55 294.018 225.488C294.014 225.497 294.014 225.509 294.009 225.518" stroke="#171717" stroke-width="3.624" stroke-linecap="round" stroke-linejoin="round"/>
<path d="M236.097 207.794C235.47 207.649 233.849 207.457 233.29 207.138C233.002 206.991 232.748 206.784 232.547 206.532C232.344 206.28 232.197 205.988 232.116 205.675C231.933 204.769 232.551 203.845 233.36 203.402C234.202 203.01 235.132 202.843 236.057 202.916C236.98 202.987 237.907 202.951 238.821 202.811" stroke="#171717" stroke-width="3.624" stroke-linecap="round" stroke-linejoin="round"/>
<path d="M280.242 203.718C280.291 203.714 280.339 203.714 280.387 203.709C281.425 203.639 282.465 203.571 283.505 203.504C284.482 203.438 285.576 203.411 286.299 204.073C286.964 204.686 287.082 205.728 286.82 206.595C286.558 207.462 286.013 207.909 285.454 208.619" stroke="#171717" stroke-width="3.624" stroke-linecap="round" stroke-linejoin="round"/>
<path d="M91.4663 305.889L91.4402 305.849C84.6045 295.826 84.3374 281.734 90.7877 271.456C92.8326 268.198 95.5038 265.264 96.7914 261.638C98.1577 257.785 97.8206 253.572 97.9514 249.487C98.3585 236.914 103.723 224.377 113.256 216.175C122.789 207.973 136.518 204.562 148.521 208.315C160.523 212.068 170.096 223.283 170.968 235.824C171.349 241.346 170.166 246.964 171.239 252.394C172.246 257.487 175.15 261.98 177.02 266.822C181.245 277.782 181.123 288.603 174.585 298.359" stroke="#171717" stroke-width="3.624" stroke-linecap="round" stroke-linejoin="round"/>
<path d="M114.74 249.075C117.592 249.446 120.486 248.851 122.96 247.385C126.214 245.515 128.74 242.354 129.471 238.661C131.555 239.966 133.957 240.673 136.415 240.703C138.872 240.733 141.291 240.086 143.406 238.833C147.172 236.529 149.186 232.126 149.186 227.714C149.186 227.228 149.16 226.742 149.113 226.26" stroke="#171717" stroke-width="3.624" stroke-linecap="round" stroke-linejoin="round"/>
<path d="M149.169 227.666C149.173 227.683 149.182 227.697 149.186 227.714C151.384 233.565 153.591 239.472 154.537 245.646C155.492 251.843 155.098 258.416 152.269 264.008C149.751 269.004 145.507 272.866 141.982 277.211C140.478 279.031 139.18 281.012 138.112 283.118C138.076 283.191 138.042 283.263 138.007 283.335C136.619 286.235 135.87 289.348 136.356 292.497" stroke="#171717" stroke-width="3.624" stroke-linecap="round" stroke-linejoin="round"/>
<path d="M122.96 247.354V247.385C123.293 259.415 123.639 271.544 125.552 283.39C126.211 287.561 127.098 291.692 128.211 295.765C128.881 298.194 129.704 300.704 131.499 302.471C133.295 304.238 136.36 304.967 138.361 303.439C139.85 302.305 140.363 300.308 140.577 298.451C141.177 293.262 140.499 288.007 138.086 283.374" stroke="#171717" stroke-width="3.624" stroke-linecap="round" stroke-linejoin="round"/>
<path d="M140.394 252.732C141.475 252.715 142.798 252.548 143.221 251.549C143.506 250.888 143.252 250.13 142.998 249.456C142.223 247.385 141.448 245.315 140.672 243.247" stroke="#171717" stroke-width="3.624" stroke-linecap="round" stroke-linejoin="round"/>
<path d="M134.723 244.039C134.064 243.506 133.224 243.251 132.38 243.327C131.537 243.403 130.756 243.804 130.203 244.446" stroke="#171717" stroke-width="3.624" stroke-linecap="round" stroke-linejoin="round"/>
<path d="M149.637 242.735C149.357 242.49 149.03 242.303 148.676 242.185C148.323 242.068 147.949 242.022 147.577 242.05C147.206 242.078 146.844 242.18 146.512 242.349C146.18 242.519 145.885 242.753 145.644 243.037" stroke="#171717" stroke-width="3.624" stroke-linecap="round" stroke-linejoin="round"/>
<path d="M139.618 262.081C139.004 262.286 138.354 262.364 137.708 262.309C137.063 262.254 136.435 262.067 135.864 261.761C135.293 261.455 134.791 261.035 134.388 260.527C133.986 260.02 133.691 259.435 133.522 258.81" stroke="#171717" stroke-width="3.624" stroke-linecap="round" stroke-linejoin="round"/>
<path d="M125.273 283.434C123.561 283.959 121.848 284.515 120.153 285.115C113.287 287.532 106.649 290.628 100.956 295.12C97.1601 298.09 93.9357 301.726 91.4402 305.85C89.2358 309.485 87.8337 313.549 87.3284 317.77" stroke="#171717" stroke-width="3.624" stroke-linecap="round" stroke-linejoin="round"/>
<path d="M138.217 283.166C139.945 282.822 141.698 282.614 143.459 282.544C151.573 282.214 159.559 284.654 166.103 289.463C169.403 291.935 172.242 294.969 174.488 298.427C177.628 303.21 179.566 308.679 180.137 314.371" stroke="#171717" stroke-width="3.624" stroke-linecap="round" stroke-linejoin="round"/>
<path d="M120.197 285.233C120.111 290.349 121.156 295.421 123.258 300.087C124.3 302.381 125.615 304.593 127.436 306.34C129.257 308.087 131.627 309.335 134.145 309.471C137.792 309.672 141.309 307.456 143.288 304.387C145.267 301.317 145.867 297.52 145.652 293.874C145.438 290.228 144.453 286.675 143.48 283.154" stroke="#171717" stroke-width="3.624" stroke-linecap="round" stroke-linejoin="round"/>
<path d="M50.2065 148.542C35.9752 133.908 28.0148 114.3 28.0186 93.8872C28.0186 50.0972 64.071 14.6006 108.54 14.6006C153.01 14.6006 189.062 50.0972 189.062 93.8872C189.076 110.6 183.732 126.876 173.814 140.327C166.791 149.786 157.796 157.607 147.453 163.247C137.11 168.888 125.664 172.214 113.909 172.995C102.153 173.777 90.3678 171.994 79.3689 167.772C68.3699 163.55 58.4196 156.989 50.2065 148.542Z" stroke="#171717" stroke-width="3.624" stroke-linecap="round" stroke-linejoin="round"/>
<path d="M87.149 317.993C78.5831 311.229 71.663 302.61 66.9088 292.785C62.1546 282.961 59.6903 272.186 59.7012 261.271C59.7012 221.321 92.0837 188.938 132.034 188.938C171.984 188.938 204.363 221.321 204.363 261.271C204.362 274.863 200.531 288.179 193.311 299.694C186.09 311.209 175.771 320.456 163.537 326.377C151.303 332.297 137.648 334.651 124.137 333.168C110.627 331.686 97.8079 326.426 87.149 317.993Z" stroke="#171717" stroke-width="3.624" stroke-linecap="round" stroke-linejoin="round"/>
<path d="M218.616 226.046C208.854 219.799 200.823 211.195 195.262 201.027C189.702 190.859 186.791 179.454 186.798 167.865C186.798 129.71 217.727 98.7812 255.882 98.7812C294.036 98.7812 324.97 129.71 324.97 167.865C324.969 180.263 321.633 192.432 315.311 203.096C308.989 213.761 299.914 222.528 289.037 228.478C278.161 234.428 265.884 237.341 253.493 236.914C241.103 236.486 229.056 232.732 218.616 226.046Z" stroke="#171717" stroke-width="3.624" stroke-linecap="round" stroke-linejoin="round"/>
<path d="M121.037 292.44L126.233 290.086" stroke="#171717" stroke-width="3.624" stroke-linecap="round" stroke-linejoin="round"/>
<path d="M123.218 299.746C124.629 298.65 126.161 297.72 127.785 296.974" stroke="#171717" stroke-width="3.624" stroke-linecap="round" stroke-linejoin="round"/>
<path d="M127.982 306.832L131.422 303.238" stroke="#171717" stroke-width="3.624" stroke-linecap="round" stroke-linejoin="round"/>
<path d="M135.706 309.183C135.737 307.714 135.767 306.245 135.798 304.776" stroke="#171717" stroke-width="3.624" stroke-linecap="round" stroke-linejoin="round"/>
<path d="M139.584 302.367C140.846 302.802 142.149 303.11 143.473 303.287" stroke="#171717" stroke-width="3.624" stroke-linecap="round" stroke-linejoin="round"/>
<path d="M140.935 297C142.316 296.287 143.794 295.776 145.321 295.484" stroke="#171717" stroke-width="3.624" stroke-linecap="round" stroke-linejoin="round"/>
<path d="M140.542 289.584L144.242 288.772" stroke="#171717" stroke-width="3.624" stroke-linecap="round" stroke-linejoin="round"/>
<path d="M135.644 309.344C136.348 317.132 136.892 324.931 137.275 332.743" stroke="#171717" stroke-width="3.624" stroke-linecap="round" stroke-linejoin="round"/>
<path d="M117.671 310.336L116.12 307.479" stroke="#171717" stroke-width="3.624" stroke-linecap="round" stroke-linejoin="round"/>
<path d="M115.099 310.557L118.734 308.089" stroke="#171717" stroke-width="3.624" stroke-linecap="round" stroke-linejoin="round"/>
<path d="M163.518 313.877C162.534 313.14 161.589 312.352 160.688 311.516" stroke="#171717" stroke-width="3.624" stroke-linecap="round" stroke-linejoin="round"/>
<path d="M161.092 314.605L160.939 314.616L163.235 310.947" stroke="#171717" stroke-width="3.624" stroke-linecap="round" stroke-linejoin="round"/>
<path d="M157.608 297.053C156.636 296.252 155.734 295.371 154.911 294.418" stroke="#171717" stroke-width="3.624" stroke-linecap="round" stroke-linejoin="round"/>
<path d="M155.196 297.5L157.586 293.603" stroke="#171717" stroke-width="3.624" stroke-linecap="round" stroke-linejoin="round"/>
<path d="M149.691 324.378C148.665 323.609 147.712 322.745 146.847 321.798" stroke="#171717" stroke-width="3.624" stroke-linecap="round" stroke-linejoin="round"/>
<path d="M149.649 321.211L147.139 324.763" stroke="#171717" stroke-width="3.624" stroke-linecap="round" stroke-linejoin="round"/>
<path d="M125.157 328.039C126.599 326.621 127.879 325.046 128.972 323.343" stroke="#171717" stroke-width="3.624" stroke-linecap="round" stroke-linejoin="round"/>
<path d="M128.667 327.776C127.577 326.49 126.488 325.205 125.398 323.92" stroke="#171717" stroke-width="3.624" stroke-linecap="round" stroke-linejoin="round"/>
<path d="M99.3494 314.44C99.945 313.441 100.631 312.5 101.398 311.626" stroke="#171717" stroke-width="3.624" stroke-linecap="round" stroke-linejoin="round"/>
<path d="M101.386 314.18C100.499 313.406 99.7357 312.501 99.1216 311.497" stroke="#171717" stroke-width="3.624" stroke-linecap="round" stroke-linejoin="round"/>
<path d="M275.042 207.485C274.994 206.172 274.947 204.858 274.9 203.544" stroke="#171717" stroke-width="3.624" stroke-linecap="round" stroke-linejoin="round"/>
<path d="M269.076 207.411C269.23 206.154 269.23 204.883 269.076 203.627" stroke="#171717" stroke-width="3.624" stroke-linecap="round" stroke-linejoin="round"/>
<path d="M262.912 207.029C263.088 205.824 263.141 204.606 263.072 203.391" stroke="#171717" stroke-width="3.624" stroke-linecap="round" stroke-linejoin="round"/>
<path d="M256.815 206.636C256.848 205.476 256.88 204.316 256.912 203.156" stroke="#171717" stroke-width="3.624" stroke-linecap="round" stroke-linejoin="round"/>
<path d="M250.541 206.417C250.828 205.515 250.915 204.562 250.795 203.623" stroke="#171717" stroke-width="3.624" stroke-linecap="round" stroke-linejoin="round"/>
<path d="M244.259 206.713L244.407 203.467" stroke="#171717" stroke-width="3.624" stroke-linecap="round" stroke-linejoin="round"/>
<path d="M255.006 210.364C254.777 210.265 254.519 210.258 254.286 210.344C254.052 210.43 253.86 210.602 253.751 210.826C253.641 211.049 253.622 211.306 253.696 211.544C253.771 211.781 253.934 211.98 254.152 212.101C254.37 212.221 254.626 212.253 254.867 212.19C255.107 212.126 255.314 211.972 255.445 211.76C255.575 211.549 255.619 211.295 255.567 211.051C255.516 210.807 255.372 210.594 255.167 210.453" stroke="#171717" stroke-width="3.624" stroke-linecap="round" stroke-linejoin="round"/>
<path d="M268.141 210.364C267.913 210.264 267.655 210.257 267.421 210.342C267.187 210.428 266.995 210.6 266.885 210.824C266.775 211.047 266.755 211.305 266.83 211.542C266.904 211.78 267.067 211.98 267.286 212.101C267.503 212.221 267.76 212.253 268 212.19C268.241 212.127 268.449 211.973 268.58 211.761C268.711 211.549 268.754 211.295 268.703 211.051C268.651 210.807 268.508 210.593 268.302 210.452" stroke="#171717" stroke-width="3.624" stroke-linecap="round" stroke-linejoin="round"/>
<path d="M254.464 211.117C253.363 212.395 253.123 214.229 253.372 215.897C253.622 217.564 254.304 219.131 254.864 220.721C255.425 222.311 255.873 224.001 255.634 225.67C255.396 227.339 254.32 228.984 252.698 229.445" stroke="#171717" stroke-width="3.624" stroke-linecap="round" stroke-linejoin="round"/>
<path d="M267.629 211.401C268.89 212.536 269.848 213.966 270.418 215.564C270.988 217.161 271.15 218.875 270.892 220.551C270.697 221.733 270.291 222.875 270.131 224.062C269.97 225.25 270.094 226.55 270.84 227.487" stroke="#171717" stroke-width="3.624" stroke-linecap="round" stroke-linejoin="round"/>
<path d="M122.476 132.061C122.386 128.146 122.296 124.231 122.206 120.316" stroke="#171717" stroke-width="3.624" stroke-linecap="round" stroke-linejoin="round"/>
<path d="M115.084 132.373C115.24 128.319 115.397 124.266 115.553 120.213" stroke="#171717" stroke-width="3.624" stroke-linecap="round" stroke-linejoin="round"/>
<path d="M107.531 132.474C107.409 128.489 107.287 124.505 107.164 120.52" stroke="#171717" stroke-width="3.624" stroke-linecap="round" stroke-linejoin="round"/>
<path d="M98.8655 132.679C98.6636 128.733 98.5737 124.783 98.5955 120.83" stroke="#171717" stroke-width="3.624" stroke-linecap="round" stroke-linejoin="round"/>
<path d="M91.0868 132.886L91.0303 121.861" stroke="#171717" stroke-width="3.624" stroke-linecap="round" stroke-linejoin="round"/>
<path d="M86.065 132.783C85.9627 129.211 85.8598 125.639 85.7568 122.067" stroke="#171717" stroke-width="3.624" stroke-linecap="round" stroke-linejoin="round"/>
<path d="M151.775 146.266C151.888 145.903 151.928 145.521 151.892 145.143C151.856 144.764 151.745 144.396 151.565 144.061C151.386 143.726 151.141 143.429 150.846 143.19C150.55 142.95 150.21 142.771 149.845 142.664C148.863 142.423 147.841 142.737 146.855 142.965C145.87 143.194 144.761 143.325 143.908 142.779C142.972 142.181 142.66 140.981 142.443 139.891" stroke="#171717" stroke-width="3.624" stroke-linecap="round" stroke-linejoin="round"/>
<path d="M134.371 163.144C134.731 162.646 134.902 162.036 134.854 161.423C134.806 160.81 134.542 160.234 134.108 159.799C133.596 159.314 132.901 159.065 132.363 158.608C131.825 158.152 131.477 157.303 131.912 156.75" stroke="#171717" stroke-width="3.624" stroke-linecap="round" stroke-linejoin="round"/>
<path d="M113.144 154.477C112.778 153.784 112.51 153.044 112.347 152.277C112.267 151.893 112.268 151.496 112.348 151.112C112.428 150.728 112.587 150.364 112.813 150.044C113.209 149.544 113.806 149.249 114.28 148.823C114.732 148.405 115.064 147.874 115.242 147.285C115.42 146.696 115.438 146.07 115.292 145.472" stroke="#171717" stroke-width="3.624" stroke-linecap="round" stroke-linejoin="round"/>
<path d="M92.4766 162.764C92.2728 161.847 91.6943 161.068 91.2615 160.235C90.8286 159.402 90.5397 158.386 90.945 157.539C91.297 156.803 92.0753 156.389 92.6651 155.825C93.1577 155.344 93.5242 154.749 93.7319 154.092C93.94 153.436 93.9824 152.739 93.8562 152.062" stroke="#171717" stroke-width="3.624" stroke-linecap="round" stroke-linejoin="round"/>
<path d="M79.2845 149.177C79.0967 148.431 79.0376 147.659 79.1094 146.893C79.1496 146.511 79.2856 146.144 79.5045 145.828C79.7235 145.512 80.0186 145.256 80.3622 145.083C80.8045 144.899 81.3047 144.91 81.7607 144.765C82.1693 144.608 82.5365 144.359 82.8341 144.038C83.1321 143.717 83.3528 143.333 83.4793 142.914C83.7258 142.075 83.8411 141.202 83.8215 140.328" stroke="#171717" stroke-width="3.624" stroke-linecap="round" stroke-linejoin="round"/>
<path d="M62.9773 151.31C62.8802 150.684 62.869 150.048 62.944 149.42C62.9831 149.105 63.0857 148.802 63.2456 148.528C63.4051 148.255 63.6186 148.016 63.8727 147.827C64.3447 147.586 64.8435 147.4 65.359 147.275C65.8962 147.071 66.3776 146.743 66.7633 146.317C67.1486 145.891 67.4274 145.38 67.5764 144.825" stroke="#171717" stroke-width="3.624" stroke-linecap="round" stroke-linejoin="round"/>
<path d="M143.135 66.4953L150.306 58.6943" stroke="#171717" stroke-width="3.624" stroke-linecap="round" stroke-linejoin="round"/>
<path d="M144.223 72.2848C151.185 71.1897 158.019 69.4004 164.624 66.9434" stroke="#171717" stroke-width="3.624" stroke-linecap="round" stroke-linejoin="round"/>
<path d="M142.281 78.8477C144.108 80.658 146.298 82.0609 148.706 82.9638" stroke="#171717" stroke-width="3.624" stroke-linecap="round" stroke-linejoin="round"/>
<path d="M74.6858 44.5801C75.5601 43.0851 76.4341 41.5902 77.3081 40.0948" stroke="#171717" stroke-width="3.624" stroke-linecap="round" stroke-linejoin="round"/>
<path d="M77.8563 44.5368C76.755 42.8845 75.35 41.457 73.7158 40.33" stroke="#171717" stroke-width="3.624" stroke-linecap="round" stroke-linejoin="round"/>
<path d="M66.3856 61.2579L63.5806 55.5507" stroke="#171717" stroke-width="3.624" stroke-linecap="round" stroke-linejoin="round"/>
<path d="M62.0034 60.9528C63.5625 59.2454 65.3359 57.7465 67.2792 56.494" stroke="#171717" stroke-width="3.624" stroke-linecap="round" stroke-linejoin="round"/>
<path d="M221.696 156.165C221.192 154.812 220.447 153.561 219.499 152.474" stroke="#171717" stroke-width="3.624" stroke-linecap="round" stroke-linejoin="round"/>
<path d="M218.865 155.993L222.091 152.573" stroke="#171717" stroke-width="3.624" stroke-linecap="round" stroke-linejoin="round"/>
<path d="M223.624 174.687C221.702 173.74 219.913 172.545 218.303 171.132" stroke="#171717" stroke-width="3.624" stroke-linecap="round" stroke-linejoin="round"/>
<path d="M218.742 176.267L222.995 168.428" stroke="#171717" stroke-width="3.624" stroke-linecap="round" stroke-linejoin="round"/>
<path d="M182.388 288.923C184.459 283.932 184.682 278.366 183.016 273.227" stroke="#171717" stroke-width="3.624" stroke-linecap="round" stroke-linejoin="round"/>
<path d="M82.6704 282.147C83.2232 277.913 84.8864 273.902 87.4917 270.52" stroke="#171717" stroke-width="3.624" stroke-linecap="round" stroke-linejoin="round"/>
<path d="M99.4216 220.312C100.31 218.958 101.468 217.801 102.822 216.912" stroke="#171717" stroke-width="3.624" stroke-linecap="round" stroke-linejoin="round"/>
<path d="M102.097 221.213L99.1611 215.957" stroke="#171717" stroke-width="3.624" stroke-linecap="round" stroke-linejoin="round"/>
<path d="M88.2607 229.276C88.3506 227.214 88.4402 225.153 88.5301 223.092" stroke="#171717" stroke-width="3.624" stroke-linecap="round" stroke-linejoin="round"/>
<path d="M84.7366 226.616L91.5411 226.045" stroke="#171717" stroke-width="3.624" stroke-linecap="round" stroke-linejoin="round"/>
<path d="M56.0656 277C54.4217 273.419 53.5241 269.541 53.4281 265.602C53.332 261.664 54.0396 257.746 55.5074 254.09" stroke="#171717" stroke-width="3.624" stroke-linecap="round" stroke-linejoin="round"/>
<path d="M309.068 221.606C316.825 214.732 322.574 205.884 325.702 196.003" stroke="#171717" stroke-width="3.624" stroke-linecap="round" stroke-linejoin="round"/>
<path d="M31.3285 136.034C25.9369 128.423 22.8346 119.428 22.3875 110.111" stroke="#171717" stroke-width="3.624" stroke-linecap="round" stroke-linejoin="round"/>
<path d="M218.999 48.7078C215.017 52.5093 212.525 57.6082 211.97 63.0852C211.595 66.9368 212.597 71.4405 216.028 73.2294C219.178 74.8716 223.594 73.1261 224.77 69.7741C225.199 68.5521 225.159 67.0191 224.187 66.1629C222.991 65.1084 221.072 65.6293 219.782 66.5689C218.411 67.6016 217.367 69.0074 216.773 70.6176C216.18 72.2282 216.062 73.9755 216.435 75.6506C217.088 78.3784 218.994 80.6063 220.834 82.723C222.674 84.8396 224.572 87.0766 225.206 89.8087C225.84 92.5409 224.74 95.8955 222.098 96.8383" stroke="#171717" stroke-width="3.624" stroke-linecap="round" stroke-linejoin="round"/>
<path d="M51.4529 171.579C56.707 172.778 60.7398 178 60.572 183.386C60.4042 188.772 56.0534 193.733 50.7352 194.602C48.5906 194.952 46.1789 194.61 44.6586 193.058C43.1383 191.505 43.048 188.553 44.8623 187.357C46.8873 186.021 49.6836 187.582 50.9679 189.64C53.2306 193.257 52.775 198.019 51.1068 201.946C49.4385 205.873 46.7118 209.235 44.4208 212.834C42.1298 216.433 40.2115 220.526 40.483 224.784" stroke="#171717" stroke-width="3.624" stroke-linecap="round" stroke-linejoin="round"/>
<path d="M223.953 287.917C228.402 279.561 235.569 272.972 244.268 269.239C246.711 268.2 250 267.597 251.638 269.686C252.623 270.942 252.558 272.777 251.896 274.229C251.234 275.681 250.074 276.837 248.939 277.958C247.907 278.977 246.819 280.03 245.434 280.46C244.05 280.889 242.284 280.467 241.671 279.155C240.856 277.409 242.428 275.522 243.929 274.316C250.456 269.089 258.23 265.649 266.488 264.333" stroke="#171717" stroke-width="3.624" stroke-linecap="round" stroke-linejoin="round"/>
<path d="M204.364 48.9123C204.055 47.3655 203.746 45.8198 203.437 44.2755" stroke="#171717" stroke-width="3.624" stroke-linecap="round" stroke-linejoin="round"/>
<path d="M200.642 47.6351L207.439 45.4601" stroke="#171717" stroke-width="3.624" stroke-linecap="round" stroke-linejoin="round"/>
<path d="M36.8666 184.29C36.2692 182.149 35.6716 180.008 35.074 177.868" stroke="#171717" stroke-width="3.624" stroke-linecap="round" stroke-linejoin="round"/>
<path d="M32.2832 183.229L38.4252 179.757" stroke="#171717" stroke-width="3.624" stroke-linecap="round" stroke-linejoin="round"/>
<path d="M260.948 283.541C262.455 281.87 263.51 279.843 264.012 277.65" stroke="#171717" stroke-width="3.624" stroke-linecap="round" stroke-linejoin="round"/>
<path d="M259.705 280.406L265.872 282.611" stroke="#171717" stroke-width="3.624" stroke-linecap="round" stroke-linejoin="round"/>
<path d="M244.239 258.179C244.309 256.131 244.837 254.124 245.785 252.307" stroke="#171717" stroke-width="3.624" stroke-linecap="round" stroke-linejoin="round"/>
<path d="M241.146 255.487L247.327 255.585" stroke="#171717" stroke-width="3.624" stroke-linecap="round" stroke-linejoin="round"/>
<g opacity="0.1">
<path d="M116.094 62.1077C114.217 61.8061 112.318 61.6727 110.418 61.7089C108.76 61.7843 107.111 61.9558 105.451 61.9761C102.106 62.0167 98.5897 62.0794 95.2783 62.5423C92.6723 62.907 90.0655 64.3352 88.568 66.5472C87.0263 68.8241 87.0122 71.9662 87.072 74.6187C87.3925 88.8004 88.5913 102.986 89.4522 117.145C89.7364 121.817 97.0448 121.849 96.7587 117.145C95.9779 104.304 95.5222 91.3923 94.3343 78.583C94.1056 76.1143 93.5285 73.3629 93.8631 70.8816C93.9508 70.2266 94.1049 69.1348 94.4967 68.6193C95.0767 67.858 96.8871 67.5782 97.7621 67.3531C103.925 65.7671 110.264 65.1955 116.181 62.741C116.253 62.7163 116.314 62.6681 116.353 62.6036C116.393 62.5394 116.409 62.4633 116.399 62.3883C116.389 62.3136 116.353 62.2444 116.298 62.1932C116.242 62.1418 116.171 62.1109 116.096 62.1066L116.094 62.1077Z" fill="#171717"/>
</g>
<g opacity="0.1">
<path d="M83.1503 122.6C82.5007 124.532 82.3528 126.562 82.1785 128.584C82.0864 129.652 82.0469 130.737 81.9019 131.799C81.899 132.086 81.8486 132.37 81.7529 132.641C81.8504 132.462 82.1292 132.34 81.7823 132.483C80.3359 133.08 78.4784 133.107 76.9483 133.467C75.1945 133.878 73.4545 134.366 71.7475 134.942C68.4296 136.059 65.2258 137.49 62.1804 139.216C59.1086 140.963 56.4776 143.208 53.5743 145.187C51.7332 146.442 51.0908 148.82 52.5256 150.68C53.7907 152.319 56.632 152.788 58.1045 151.058C60.4636 148.287 63.8258 146.2 66.9683 144.43C70.2026 142.589 73.6456 141.142 77.2242 140.12C80.6092 139.168 85.3079 139.295 87.3017 135.883C88.4033 133.998 88.2014 131.754 88.201 129.656C88.201 127.279 88.2551 124.925 87.6892 122.6C87.1117 120.228 83.8558 120.501 83.1503 122.6Z" fill="#171717"/>
</g>
<g opacity="0.1">
<path d="M128.645 240.459C128.665 242.453 127.472 243.335 126.278 244.71C125.201 245.924 124.259 247.252 123.467 248.67C121.514 252.247 122.208 256.496 122.356 260.425C122.675 268.924 123.425 277.407 124.04 285.89L126.697 282.399C118.235 284.101 110.278 287.727 103.441 292.997C100.029 295.573 96.9157 298.523 94.1593 301.792C92.6832 303.56 91.3111 305.412 90.0496 307.339C88.8352 309.207 87.3957 311.29 86.9966 313.511C86.7088 315.112 87.1873 316.738 88.6598 317.599C89.98 318.371 91.9995 318.231 93.046 317.033C94.4569 315.417 95.2758 313.487 96.3712 311.659C97.309 310.077 98.34 308.552 99.4586 307.092C101.889 303.952 104.696 301.123 107.818 298.67C113.899 293.935 121.037 290.748 128.621 289.38C130.074 289.113 131.387 287.362 131.278 285.89C130.649 277.4 130.154 268.889 129.23 260.425C129.016 258.464 128.802 256.502 128.575 254.543C128.38 252.857 127.85 250.747 128.203 249.094C128.514 247.634 129.491 246.246 130.052 244.858C130.643 243.395 131.174 242.067 131.024 240.459C130.885 238.963 128.632 238.9 128.645 240.459Z" fill="#171717"/>
</g>
<g opacity="0.1">
<path d="M239.641 147.556C238.747 149.962 239.011 152.962 238.784 155.509C238.537 158.294 238.277 161.082 238.076 163.87C237.781 167.966 238.575 172.855 240.514 176.513C241.51 178.392 243.039 180.217 244.912 181.264C246.735 182.284 248.769 182.887 250.588 183.938C255.383 186.708 253.585 192.848 251.233 196.767C249.464 199.713 254.673 201.94 255.55 198.587C256.818 193.729 258.891 188.872 256.218 184.028C255.209 182.2 253.644 180.725 252.002 179.478C250.293 178.22 248.701 176.811 247.243 175.268C245.834 173.748 244.633 172.097 244.038 170.1C243.476 168.063 243.108 165.977 242.941 163.87C242.664 161.079 242.926 158.302 242.979 155.51C243.029 152.876 243.278 149.572 241.815 147.272C241.692 147.076 241.516 146.92 241.307 146.821C241.098 146.723 240.865 146.686 240.636 146.716C240.407 146.746 240.192 146.841 240.015 146.99C239.838 147.139 239.708 147.336 239.64 147.556L239.641 147.556Z" fill="#171717"/>
</g>
<g opacity="0.1">
<path d="M244.684 200.759C242.044 199.633 239.699 202.955 238.88 205.021C238.197 206.745 237.66 208.392 235.537 208.342C233.509 208.293 231.522 207.399 229.535 207.053C225.858 206.412 221.243 207.554 219.473 211.159C217.552 215.074 218.92 219.08 218.18 223.161C217.376 227.595 223.472 229.351 224.963 225.031C226.16 221.561 224.71 218 225.39 214.508C225.538 213.854 225.774 213.223 226.091 212.633C226.336 212.151 226.351 212.4 226.216 212.473C226.575 212.305 226.958 212.195 227.351 212.147C229.077 211.859 230.745 212.351 232.426 212.661C235.622 213.252 239.062 213.011 240.889 209.916C241.655 208.619 241.944 207.134 242.297 205.691C242.441 204.911 242.639 204.142 242.888 203.39C243.284 202.398 243.856 202.028 244.682 201.465C244.905 201.314 244.988 200.892 244.682 200.761L244.684 200.759Z" fill="#171717"/>
</g>
</g>
</g>
</svg>
