<svg width="347" height="310" viewBox="0 0 347 310" fill="none" xmlns="http://www.w3.org/2000/svg">
<mask id="mask0_2469_1875" style="mask-type:luminance" maskUnits="userSpaceOnUse" x="0" y="0" width="347" height="310">
<path d="M346.156 0.203125H0.84375V309.188H346.156V0.203125Z" fill="white"/>
</mask>
<g mask="url(#mask0_2469_1875)">
<path d="M288.352 246.648C287.796 247.341 287.023 247.828 286.158 248.029C285.335 248.224 284.474 248.176 283.679 247.889C282.883 247.603 282.189 247.091 281.681 246.416C281.317 245.905 281.082 245.313 280.998 244.692C280.913 244.07 280.981 243.438 281.195 242.848C281.408 242.259 281.762 241.73 282.226 241.307C282.689 240.885 283.248 240.581 283.855 240.423C287.12 239.581 290.967 243.283 288.352 246.648Z" fill="#171717"/>
<path d="M284.111 156.148C280.585 157.62 276.357 157.239 272.992 155.382C270.432 153.966 267.316 150.981 265.875 147.784L265.102 143.792C265.551 139.107 270.883 135.369 274.625 133.427C276.293 132.499 278.1 131.846 279.976 131.494C278.309 134.207 277.27 137.257 276.932 140.423C276.793 141.823 276.834 143.234 277.052 144.623C277.205 145.589 277.452 146.537 277.79 147.455C279.025 150.817 281.384 153.749 284.111 156.148Z" fill="white" fill-opacity="0.96"/>
<path d="M277.452 140.476L276.931 140.424C277.269 137.258 278.309 134.208 279.975 131.495C281.003 131.325 282.053 131.348 283.072 131.563C286.009 132.209 288.283 134.624 289.655 137.299C291.279 140.387 291.801 143.936 291.135 147.36C290.788 149.059 290.09 150.666 289.086 152.08C288.081 153.493 286.793 154.681 285.303 155.567C284.919 155.787 284.521 155.981 284.111 156.149C281.384 153.75 279.025 150.818 277.79 147.456L277.985 147.388C279.774 147.496 281.679 147.239 283.099 146.144C284.519 145.05 285.245 142.927 284.339 141.379C283.701 140.285 282.397 139.699 281.134 139.642C279.86 139.647 278.604 139.932 277.452 140.476Z" fill="#171717"/>
<path d="M257.548 108.151C256.139 108.575 254.63 108.518 253.257 107.992C251.884 107.466 250.723 106.499 249.958 105.243C249.488 104.453 249.179 103.577 249.049 102.667C248.92 101.757 248.973 100.83 249.204 99.9402C249.439 98.9769 249.891 98.0796 250.524 97.3167C251.438 96.2214 252.673 95.4417 254.055 95.0874C255.436 94.7335 256.894 94.823 258.222 95.3433C259.55 95.8636 260.681 96.7886 261.454 97.9874C262.227 99.1859 262.604 100.597 262.53 102.022C262.477 103.289 262.059 104.515 261.327 105.552C260.402 106.826 259.068 107.744 257.548 108.151Z" fill="#171717"/>
<path d="M227.611 25.3679L226.46 25.6886C221.349 24.8343 200.622 21.6733 196.161 25.8839C194.729 27.2354 194.28 28.6553 194.377 29.9952L193.899 30.0393C186.319 29.9112 178.746 30.5401 171.291 31.9167C173.389 29.2811 176.522 27.6245 179.767 26.7139C183.013 25.8034 186.402 25.5811 189.764 25.3624C183.451 24.3714 177.068 23.8897 170.677 23.9221C174.408 21.1304 179.11 19.8745 183.759 19.5737C188.408 19.2729 193.069 19.8667 197.69 20.4604C191.526 18.4397 185.162 17.0893 178.708 16.4327C185.869 13.5366 193.96 15.1772 201.501 16.8499C197.53 15.6624 193.561 14.4753 189.595 13.2878C196.804 11.0577 204.574 13.0432 211.81 15.1893C214.907 16.1081 218.024 17.0706 220.848 18.6389C223.672 20.2073 226.219 22.4514 227.611 25.3679Z" fill="#171717"/>
<path d="M227.602 25.8855C227.602 25.8855 227.353 26.9792 227.341 32.5402H226.977C226.977 32.5402 210.045 27.8667 198.432 36.3632C198.432 36.3632 194.621 33.4335 194.376 29.996C194.28 28.6562 194.728 27.2363 196.161 25.8847C200.622 21.6726 221.349 24.8335 226.459 25.6894C227.19 25.8089 227.602 25.8855 227.602 25.8855Z" fill="white" fill-opacity="0.96"/>
<path d="M118.858 137.306C121.265 97.6655 172.234 60.8089 200.264 62.4136C200.922 62.4495 201.488 62.9511 201.973 63.7331V63.737C204.031 67.0546 204.656 75.4386 204.656 75.4386C204.656 75.4386 193.894 89.8796 197.292 96.9597C200.689 104.04 229.608 94.4081 229.608 94.4081C229.608 94.4081 230.149 96.2015 230.727 98.7608C231.084 100.333 231.452 102.194 231.717 104.108C232.424 109.134 232.424 114.514 229.608 115.93C225.183 118.156 198.471 121.782 182.02 119.379L172.377 137.306H118.858Z" fill="white" fill-opacity="0.96"/>
<path d="M159.81 232.401C161.105 237.387 161.759 242.517 161.756 247.668C161.756 248.747 161.727 249.82 161.668 250.885C160.839 266.033 154.325 280.311 143.428 290.866C132.531 301.421 118.053 307.476 102.885 307.821C87.7186 308.166 72.9795 302.776 61.6135 292.728C50.2475 282.679 43.0913 268.712 41.5745 253.617C40.0577 238.523 44.292 223.411 53.4315 211.302C62.5709 199.193 75.9428 190.978 90.8752 188.299C105.808 185.619 121.201 188.672 133.981 196.848C146.76 205.024 155.984 217.72 159.81 232.401Z" stroke="#171717" stroke-width="4" stroke-linecap="round" stroke-linejoin="round"/>
<path d="M345.245 247.667C345.255 259.624 341.717 271.314 335.081 281.26C328.444 291.205 319.006 298.959 307.962 303.539C296.917 308.119 284.762 309.32 273.035 306.99C261.308 304.66 250.535 298.903 242.081 290.448C233.626 281.994 227.869 271.221 225.539 259.494C223.209 247.767 224.409 235.612 228.99 224.567C233.57 213.523 241.323 204.085 251.268 197.448C261.214 190.812 272.905 187.274 284.861 187.284C300.876 187.284 316.235 193.646 327.559 204.97C338.883 216.294 345.245 231.652 345.245 247.667Z" stroke="#171717" stroke-width="4" stroke-linecap="round" stroke-linejoin="round"/>
<path d="M103.418 231.205C107.069 231.456 110.489 233.083 112.987 235.757C115.485 238.432 116.875 241.954 116.877 245.614C116.878 246.274 116.832 246.934 116.74 247.587C116.361 250.333 115.2 252.912 113.395 255.016C111.591 257.119 109.218 258.659 106.562 259.452C103.906 260.244 101.078 260.255 98.4157 259.483C95.7536 258.712 93.3696 257.191 91.5485 255.101C89.7274 253.011 88.5462 250.441 88.1458 247.699C87.7454 244.956 88.1431 242.156 89.2911 239.633C90.4388 237.11 92.2888 234.971 94.6196 233.47C96.9505 231.97 99.6638 231.173 102.436 231.173C102.684 231.173 102.933 231.18 103.178 231.193" stroke="#171717" stroke-width="3.081" stroke-linecap="round" stroke-linejoin="round"/>
<path d="M206.082 235.409C209.025 237.478 211.375 240.282 212.896 243.541C214.418 246.801 215.058 250.403 214.754 253.988C214.45 257.572 213.211 261.014 211.162 263.971C209.112 266.928 206.324 269.296 203.074 270.839" stroke="#171717" stroke-width="3.081" stroke-linecap="round" stroke-linejoin="round"/>
<path d="M102.435 231.173C102.435 231.173 102.692 231.18 103.177 231.193L103.418 231.205C104.926 231.249 108.079 231.345 112.251 231.461C124.673 231.813 146.115 232.364 159.81 232.399C165.904 232.419 170.465 232.335 172.021 232.09" stroke="#171717" stroke-width="3.081" stroke-linecap="round" stroke-linejoin="round"/>
<path d="M102.435 260.055L143.508 265.86L158.266 267.946L180.168 271.043" stroke="#171717" stroke-width="3.081" stroke-linecap="round" stroke-linejoin="round"/>
<path d="M222.568 152.044H222.572L264.969 143.11L265.101 143.792L265.875 147.784L273.742 188.307L283.855 240.423L284.861 245.614" stroke="#171717" stroke-width="3.081" stroke-linecap="round" stroke-linejoin="round"/>
<path d="M152.79 178.483L137.102 198.986L112.251 231.462L110.558 233.676L100.807 246.416L116.74 247.588L161.668 250.885L173.22 251.735" stroke="#171717" stroke-width="3.081" stroke-linecap="round" stroke-linejoin="round"/>
<path d="M256.192 101.773L257.548 108.152L264.969 143.111L205.845 233.307" stroke="#171717" stroke-width="3.081" stroke-linecap="round" stroke-linejoin="round"/>
<path d="M201.974 63.7371C204.032 67.0546 204.658 75.4386 204.658 75.4386C204.658 75.4386 193.895 89.8796 197.293 96.9597C200.69 104.04 229.609 94.4082 229.609 94.4082C229.609 94.4082 230.15 96.2015 230.728 98.7609C231.085 100.333 231.454 102.194 231.719 104.108C232.425 109.134 232.425 114.514 229.609 115.93C225.185 118.156 198.472 121.782 182.022 119.379C177.545 118.725 173.831 117.626 171.528 115.93C160.765 108 171.528 87.898 171.528 87.898" stroke="#171717" stroke-width="3.081" stroke-linecap="round" stroke-linejoin="round"/>
<path d="M182.021 119.375V119.379L172.378 137.306H118.858C121.265 97.6655 172.234 60.8089 200.264 62.4136C200.922 62.4495 201.488 62.9511 201.973 63.7331" stroke="#171717" stroke-width="3.081" stroke-linecap="round" stroke-linejoin="round"/>
<path d="M166.995 203.426C166.995 203.426 161.198 188.391 152.979 178.331C150.648 175.475 148.121 173.024 145.479 171.427C137.813 166.802 122.257 155.289 126.224 137.306" stroke="#171717" stroke-width="3.081" stroke-linecap="round" stroke-linejoin="round"/>
<path d="M172.378 137.306C172.378 137.306 213.17 138.068 222.573 152.044C223.917 153.991 224.586 156.324 224.479 158.687C223.628 179.073 202.772 203.016 202.772 203.016" stroke="#171717" stroke-width="3.081" stroke-linecap="round" stroke-linejoin="round"/>
<path d="M173.674 149.91C173.674 149.91 194.728 166.192 202.772 203.017C204.907 212.97 205.936 223.128 205.841 233.307C205.841 234.001 205.833 234.699 205.821 235.405C205.667 243.18 204.995 250.937 203.811 258.623" stroke="#171717" stroke-width="3.081" stroke-linecap="round" stroke-linejoin="round"/>
<path d="M204.658 75.4376C204.658 75.4376 228.156 62.4126 227.591 45.42C227.398 39.5794 227.338 35.4477 227.342 32.5395C227.354 26.9798 227.603 25.8848 227.603 25.8848C227.603 25.8848 227.19 25.8067 226.46 25.6895C221.349 24.8352 200.622 21.6743 196.162 25.8848C194.73 27.2364 194.28 28.6563 194.377 29.9962C194.621 33.4337 198.432 36.3634 198.432 36.3634L201.974 63.7329V63.7368" stroke="#171717" stroke-width="3.081" stroke-linecap="round" stroke-linejoin="round"/>
<path d="M226.977 32.5409C226.977 32.5409 210.045 27.8675 198.432 36.364" stroke="#171717" stroke-width="3.081" stroke-linecap="round" stroke-linejoin="round"/>
<path d="M210.98 62.3125C210.339 62.6223 209.627 62.7551 208.918 62.6973C208.209 62.6395 207.528 62.393 206.946 61.9832C206.364 61.5734 205.903 61.0156 205.609 60.3676C205.316 59.7191 205.201 59.0043 205.277 58.2969" stroke="#171717" stroke-width="3.081" stroke-linecap="round" stroke-linejoin="round"/>
<path d="M212.496 55.0371C213.892 55.1574 215.601 55.1249 216.299 53.9136C216.756 53.1234 216.576 52.1367 216.377 51.246C215.544 47.4312 214.71 43.616 213.877 39.8007C213.741 39.1832 213.617 38.4972 213.933 37.9476C214.278 37.3499 215.02 37.1292 215.694 36.9769C218.07 36.4433 220.485 36.0988 222.915 35.946" stroke="#171717" stroke-width="3.081" stroke-linecap="round" stroke-linejoin="round"/>
<path d="M221.781 42.5972C221.265 42.1476 220.631 41.8542 219.954 41.7519C219.277 41.6495 218.585 41.7425 217.959 42.0194" stroke="#171717" stroke-width="3.081" stroke-linecap="round" stroke-linejoin="round"/>
<path d="M209.471 43.0104C208.843 42.5956 208.09 42.4116 207.341 42.4897C206.592 42.5683 205.893 42.9042 205.364 43.4401" stroke="#171717" stroke-width="3.081" stroke-linecap="round" stroke-linejoin="round"/>
<path d="M227.611 25.3682C226.219 22.4518 223.672 20.2096 220.848 18.6409C218.024 17.0721 214.906 16.11 211.81 15.1913C204.573 13.0452 196.803 11.0596 189.595 13.2897C193.562 14.4772 197.531 15.6647 201.501 16.8518C193.959 15.1792 185.868 13.5386 178.708 16.4346C185.162 17.0917 191.526 18.4421 197.69 20.4624C193.069 19.8686 188.411 19.2749 183.758 19.5757C179.105 19.8764 174.408 21.1323 170.677 23.9241C177.068 23.8921 183.45 24.3737 189.763 25.3643C186.402 25.5846 183.008 25.8054 179.767 26.7159C176.525 27.6264 173.389 29.2831 171.29 31.9186C178.745 30.5425 186.319 29.9136 193.898 30.0413" stroke="#171717" stroke-width="3.081" stroke-linecap="round" stroke-linejoin="round"/>
<path d="M257.548 108.151C256.139 108.575 254.63 108.518 253.257 107.992C251.884 107.466 250.723 106.499 249.958 105.243C249.488 104.453 249.179 103.577 249.049 102.667C248.92 101.757 248.973 100.83 249.204 99.9402C249.439 98.9769 249.891 98.0796 250.524 97.3167C251.438 96.2214 252.673 95.4417 254.055 95.0874C255.436 94.7335 256.894 94.823 258.222 95.3433C259.55 95.8636 260.681 96.7886 261.454 97.9874C262.227 99.1859 262.604 100.597 262.53 102.022C262.477 103.289 262.059 104.515 261.327 105.552C260.402 106.826 259.068 107.744 257.548 108.151Z" stroke="#171717" stroke-width="3.081" stroke-linecap="round" stroke-linejoin="round"/>
<path d="M230.881 98.725C235.237 95.4156 239.674 92.0621 244.787 90.1285C249.9 88.1949 255.894 87.8382 260.688 90.4734C265.482 93.1085 268.501 99.2265 266.517 104.325C266.043 105.532 265.213 106.724 263.965 107.065C262.718 107.406 261.133 106.83 261.326 105.552" stroke="#171717" stroke-width="3.081" stroke-linecap="round" stroke-linejoin="round"/>
<path d="M232.112 104.07C237.215 101.662 242.727 100.24 248.358 99.8784" stroke="#171717" stroke-width="3.081" stroke-linecap="round" stroke-linejoin="round"/>
<path d="M265.102 143.792C265.551 139.107 270.883 135.369 274.625 133.427C276.293 132.499 278.1 131.846 279.976 131.494C281.004 131.324 282.054 131.347 283.073 131.562C286.01 132.208 288.284 134.623 289.656 137.298C291.28 140.385 291.802 143.935 291.136 147.359C290.789 149.058 290.091 150.665 289.086 152.078C288.082 153.492 286.794 154.68 285.304 155.566C284.92 155.785 284.522 155.98 284.112 156.148C280.586 157.62 276.358 157.239 272.993 155.382C270.433 153.966 267.317 150.981 265.876 147.784C265.335 146.664 265.06 145.434 265.074 144.19C265.078 144.057 265.085 143.925 265.102 143.792Z" stroke="#171717" stroke-width="3.081" stroke-linecap="round" stroke-linejoin="round"/>
<path d="M279.976 131.492C278.309 134.205 277.269 137.255 276.931 140.421C276.793 141.821 276.833 143.232 277.052 144.621C277.204 145.587 277.452 146.536 277.79 147.454C279.026 150.815 281.384 153.747 284.112 156.146" stroke="#171717" stroke-width="3.081" stroke-linecap="round" stroke-linejoin="round"/>
<path d="M277.986 147.387C279.775 147.496 281.681 147.239 283.101 146.144C284.521 145.049 285.247 142.927 284.34 141.378C283.702 140.284 282.399 139.698 281.135 139.641C279.861 139.646 278.604 139.931 277.453 140.476C277.509 140.411 277.561 140.347 277.617 140.283" stroke="#171717" stroke-width="3.081" stroke-linecap="round" stroke-linejoin="round"/>
<path d="M166.995 203.427C169.049 208.541 170.874 219.841 172.021 232.092C172.635 238.634 173.056 245.446 173.221 251.736C173.281 254.223 173.305 256.625 173.285 258.9C173.265 261.361 173.437 264.279 175.528 265.58C176.619 266.262 177.982 266.302 179.27 266.294C179.447 266.294 179.622 266.29 179.799 266.286C185.462 266.195 191.099 265.501 196.615 264.216C197.319 264.051 198.027 263.875 198.717 263.65C199.738 263.347 200.704 262.882 201.578 262.274C202.885 261.319 203.483 260.232 203.808 258.641C203.808 258.637 203.812 258.629 203.812 258.625C203.844 258.464 203.872 258.3 203.9 258.127" stroke="#171717" stroke-width="3.081" stroke-linecap="round" stroke-linejoin="round"/>
<path d="M179.779 266.208C179.788 266.234 179.795 266.26 179.799 266.286C180.195 267.839 180.32 269.448 180.168 271.044C180.112 272.039 180.02 273.036 179.973 274.024C179.844 276.644 180.145 279.532 181.999 281.385C182.854 282.196 183.895 282.785 185.031 283.102C186.218 283.438 187.431 283.673 188.658 283.805L206.857 286.212C207.499 286.3 208.146 286.384 208.786 286.469C211.174 286.781 213.636 287.094 215.959 286.46C218.282 285.827 220.451 284.002 220.72 281.611C221.077 278.422 218.033 275.818 214.972 274.86C211.911 273.901 208.566 273.933 205.618 272.672C204.646 272.255 203.738 271.701 202.922 271.028C200.727 269.23 199.261 266.695 198.799 263.895" stroke="#171717" stroke-width="3.081" stroke-linecap="round" stroke-linejoin="round"/>
<path d="M184.849 283.654C184.352 284.446 183.984 285.313 183.758 286.221C183.649 286.676 183.648 287.151 183.757 287.607C183.865 288.063 184.08 288.487 184.383 288.844C185.089 289.575 186.188 289.727 187.203 289.839C192.061 290.369 196.92 290.9 201.781 291.432C203.205 291.584 204.729 291.721 205.981 291.031C207.232 290.341 207.83 287.457 206.827 286.438" stroke="#171717" stroke-width="3.081" stroke-linecap="round" stroke-linejoin="round"/>
<path d="M281.833 241.723C281.308 242.385 281.009 243.199 280.982 244.044C280.954 244.889 281.199 245.721 281.681 246.416C282.189 247.091 282.883 247.603 283.678 247.89C284.474 248.177 285.335 248.225 286.157 248.029C287.023 247.828 287.795 247.342 288.351 246.649C290.969 243.283 287.12 239.581 283.855 240.423C283.061 240.634 282.354 241.088 281.833 241.723Z" stroke="#171717" stroke-width="3.081" stroke-linecap="round" stroke-linejoin="round"/>
<path d="M121.602 289.984C131.446 284.869 139.28 276.096 143.508 265.859C144.87 262.57 145.845 259.133 146.413 255.618" stroke="#171717" stroke-width="3.081" stroke-linecap="round" stroke-linejoin="round"/>
<path d="M54.3626 244.47C52.068 231.449 57.7044 217.349 68.347 209.499" stroke="#171717" stroke-width="3.081" stroke-linecap="round" stroke-linejoin="round"/>
<path d="M238.951 269.285C232.148 259.09 231.049 245.337 236.143 234.186" stroke="#171717" stroke-width="3.081" stroke-linecap="round" stroke-linejoin="round"/>
<path d="M324.142 278.74C335.196 266.738 338.79 248.382 333.087 233.098" stroke="#171717" stroke-width="3.081" stroke-linecap="round" stroke-linejoin="round"/>
<path d="M195.658 32.5577C195.162 31.142 196.31 29.5741 197.724 29.0737C199.138 28.5733 200.697 28.851 202.164 29.1639C203.631 29.4768 205.161 29.8202 206.611 29.4393C208.83 28.8573 210.55 26.6596 212.843 26.7225C215.225 26.7877 216.961 29.2944 219.334 29.5081C220.624 29.6252 221.856 29.0393 223.115 28.742C224.374 28.4448 225.932 28.5514 226.64 29.6334" stroke="#171717" stroke-width="3.081" stroke-linecap="round" stroke-linejoin="round"/>
<path d="M276.687 156.556C274.311 153.426 272.791 149.731 272.275 145.835C271.76 141.939 272.267 137.975 273.747 134.335" stroke="#171717" stroke-width="3.081" stroke-linecap="round" stroke-linejoin="round"/>
<path d="M293.436 135.186C293.694 134.235 294.169 133.356 294.825 132.62" stroke="#171717" stroke-width="3.081" stroke-linecap="round" stroke-linejoin="round"/>
<path d="M297.062 141.716L307.473 137.961" stroke="#171717" stroke-width="3.081" stroke-linecap="round" stroke-linejoin="round"/>
<path d="M296.689 149.192L300.232 152.161" stroke="#171717" stroke-width="3.081" stroke-linecap="round" stroke-linejoin="round"/>
<path d="M100.466 66.2085L146.325 64.9031" stroke="#171717" stroke-width="3.081" stroke-linecap="round" stroke-linejoin="round"/>
<path d="M80.8982 98.9668L99.1818 98.127" stroke="#171717" stroke-width="3.081" stroke-linecap="round" stroke-linejoin="round"/>
<path d="M42.2695 134.689L91.5375 132.12" stroke="#171717" stroke-width="3.081" stroke-linecap="round" stroke-linejoin="round"/>
<path d="M74.5469 169.045L90.2621 168.196" stroke="#171717" stroke-width="3.081" stroke-linecap="round" stroke-linejoin="round"/>
<path d="M222.644 117.629C223.273 110.835 223.078 103.989 222.063 97.2422" stroke="#171717" stroke-width="3.081" stroke-linecap="round" stroke-linejoin="round"/>
<path d="M201.221 79.9449C199.776 73.6508 196.372 67.977 191.5 63.7383L192.197 64.2527" stroke="#171717" stroke-width="3.081" stroke-linecap="round" stroke-linejoin="round"/>
<path d="M120.703 126.596C139.045 127.024 157.35 128.187 175.619 130.085" stroke="#171717" stroke-width="3.081" stroke-linecap="round" stroke-linejoin="round"/>
<path d="M188.807 88.7441L187.682 85.0605" stroke="#171717" stroke-width="3.081" stroke-linecap="round" stroke-linejoin="round"/>
<path d="M173.227 76.0039L175.775 75.2957" stroke="#171717" stroke-width="3.081" stroke-linecap="round" stroke-linejoin="round"/>
<path d="M182.981 105.598L182.135 102.624" stroke="#171717" stroke-width="3.081" stroke-linecap="round" stroke-linejoin="round"/>
<path d="M205.076 113.234L206.917 111.395" stroke="#171717" stroke-width="3.081" stroke-linecap="round" stroke-linejoin="round"/>
<path d="M157.793 96.6746L154.537 96.5332" stroke="#171717" stroke-width="3.081" stroke-linecap="round" stroke-linejoin="round"/>
<path d="M133.859 113.941L135.695 111.389" stroke="#171717" stroke-width="3.081" stroke-linecap="round" stroke-linejoin="round"/>
<path d="M156.178 124.243L154.588 120.86" stroke="#171717" stroke-width="3.081" stroke-linecap="round" stroke-linejoin="round"/>
<path d="M174.471 121.519L171.09 122.835" stroke="#171717" stroke-width="3.081" stroke-linecap="round" stroke-linejoin="round"/>
<path d="M180.175 277.438C186.872 279.319 193.701 280.684 200.536 281.978C207.096 283.22 214.098 284.359 220.27 281.811" stroke="#171717" stroke-width="3.081" stroke-linecap="round" stroke-linejoin="round"/>
<path d="M210.033 274.063C207.868 274.791 205.955 276.122 204.52 277.899" stroke="#171717" stroke-width="3.081" stroke-linecap="round" stroke-linejoin="round"/>
<path d="M203.648 272.19C201.679 273 199.973 274.341 198.721 276.063" stroke="#171717" stroke-width="3.081" stroke-linecap="round" stroke-linejoin="round"/>
<path d="M199.567 268.148C197.631 268.871 195.977 270.193 194.846 271.922" stroke="#171717" stroke-width="3.081" stroke-linecap="round" stroke-linejoin="round"/>
<path fill-rule="evenodd" clip-rule="evenodd" d="M205.821 235.405C205.667 243.18 204.995 250.937 203.811 258.623C203.811 258.627 203.807 258.635 203.807 258.639C203.483 260.231 202.885 261.318 201.577 262.272C200.703 262.88 199.738 263.345 198.717 263.648C198.027 263.873 197.317 264.049 196.615 264.214C191.099 265.499 185.462 266.193 179.799 266.284L179.795 266.284C179.62 266.288 179.446 266.292 179.27 266.292C177.981 266.3 176.618 266.26 175.527 265.578C173.437 264.278 173.265 261.362 173.285 258.898C173.305 256.623 173.281 254.221 173.22 251.734C173.056 245.445 172.635 238.632 172.021 232.09C170.874 219.839 169.049 208.539 166.995 203.425C166.995 203.425 161.198 188.39 152.979 178.329C150.648 175.473 148.121 173.022 145.479 171.426C137.813 166.8 122.257 155.288 126.224 137.305H172.378C172.378 137.305 213.17 138.067 222.573 152.043C223.917 153.989 224.586 156.323 224.479 158.686C223.627 179.073 202.772 203.016 202.772 203.016C204.907 212.969 205.936 223.127 205.841 233.306C205.841 234.001 205.833 234.699 205.821 235.405ZM220.688 151.204C220.745 151.532 220.525 151.843 220.197 151.899C210.643 153.544 206.07 154.22 201.974 154.826L201.556 154.887C197.357 155.509 193.504 156.087 185.015 157.615C184.688 157.674 184.375 157.457 184.316 157.13C184.257 156.803 184.475 156.49 184.802 156.431C193.305 154.9 197.172 154.32 201.381 153.697L201.799 153.635C205.889 153.03 210.452 152.355 219.994 150.713C220.321 150.657 220.632 150.877 220.688 151.204ZM165.231 147.371C164.913 147.276 164.577 147.458 164.483 147.776C164.388 148.095 164.569 148.43 164.888 148.525C170.934 150.325 176.185 154.355 180.251 159.261C184.317 164.169 187.273 169.922 189.812 175.834C196.376 191.14 200.221 207.472 201.177 224.099C201.195 224.43 201.48 224.684 201.812 224.665C202.144 224.646 202.397 224.362 202.378 224.03C201.415 207.264 197.536 190.794 190.918 175.359C188.361 169.405 185.351 163.531 181.177 158.494C177.002 153.455 171.563 149.256 165.231 147.371Z" fill="#171717"/>
<path d="M318.41 43.3516C317.242 40.9032 315.43 38.8184 313.168 37.3211C310.906 35.8242 308.279 34.9707 305.568 34.8528C302.858 34.7348 300.167 35.3567 297.783 36.6512C295.399 37.9461 293.413 39.8653 292.036 42.2032C290.143 45.4176 289.584 49.6805 291.59 52.8258C293.596 55.9711 298.592 57.0891 301.194 54.416C304.342 51.1817 301.551 45.0801 297.177 43.9684C292.803 42.8567 288.244 45.361 285.166 48.6625C282.089 51.9641 279.988 56.0594 277.067 59.5C268.514 69.5727 252.672 72.5446 241.051 66.2578" stroke="#171717" stroke-width="3.081" stroke-linecap="round" stroke-linejoin="round"/>
<path d="M39.9454 173.025C44.047 177.873 44.2325 185.6 40.3732 190.642C38.6689 192.869 35.9888 194.641 33.2126 194.254C30.4364 193.867 28.1876 190.522 29.6251 188.114C30.5728 186.526 32.7431 185.948 34.5107 186.493C36.2782 187.039 37.6458 188.5 38.4982 190.142C39.4669 192.095 39.8282 194.292 39.5353 196.452C39.2427 198.612 38.3091 200.634 36.8556 202.258C33.2318 206.161 27.354 206.784 22.0288 206.875C16.7034 206.966 10.9714 206.891 6.60691 209.944C1.33621 213.632 -0.13879 221.756 3.49871 227.061" stroke="#171717" stroke-width="3.081" stroke-linecap="round" stroke-linejoin="round"/>
<path d="M288.188 25.8852V19.6562" stroke="#171717" stroke-width="3.081" stroke-linecap="round" stroke-linejoin="round"/>
<path d="M284.223 22.4871C286.552 22.8492 288.935 22.4519 291.02 21.3542" stroke="#171717" stroke-width="3.081" stroke-linecap="round" stroke-linejoin="round"/>
<path d="M297.815 115.929L302.912 113.664" stroke="#171717" stroke-width="3.081" stroke-linecap="round" stroke-linejoin="round"/>
<path d="M301.213 118.194L298.947 112.53" stroke="#171717" stroke-width="3.081" stroke-linecap="round" stroke-linejoin="round"/>
<path d="M142.078 24.1878L138.114 21.3562" stroke="#171717" stroke-width="3.081" stroke-linecap="round" stroke-linejoin="round"/>
<path d="M137.641 25.9511L142.149 19.7058" stroke="#171717" stroke-width="3.081" stroke-linecap="round" stroke-linejoin="round"/>
<path d="M169.829 4.93159L173.793 0.967529" stroke="#171717" stroke-width="3.081" stroke-linecap="round" stroke-linejoin="round"/>
<path d="M173.792 4.93159L169.261 0.967529" stroke="#171717" stroke-width="3.081" stroke-linecap="round" stroke-linejoin="round"/>
<path d="M338.59 197.479L343.686 194.08" stroke="#171717" stroke-width="3.081" stroke-linecap="round" stroke-linejoin="round"/>
<path d="M342.03 199.152L338.623 193.494" stroke="#171717" stroke-width="3.081" stroke-linecap="round" stroke-linejoin="round"/>
<path d="M330.095 171.995L335.192 170.862" stroke="#171717" stroke-width="3.081" stroke-linecap="round" stroke-linejoin="round"/>
<path d="M332.851 175.405L331.689 168.614" stroke="#171717" stroke-width="3.081" stroke-linecap="round" stroke-linejoin="round"/>
<path d="M164.282 224.098C164.481 213.442 161.756 202.935 156.402 193.719" stroke="#171717" stroke-width="3.081" stroke-linecap="round" stroke-linejoin="round"/>
<path d="M198.521 135.781C206.717 135.903 214.646 138.718 221.083 143.793" stroke="#171717" stroke-width="3.081" stroke-linecap="round" stroke-linejoin="round"/>
<path d="M136.81 88.3847C147.646 76.7113 161.187 67.8824 176.239 62.6765" stroke="#171717" stroke-width="3.081" stroke-linecap="round" stroke-linejoin="round"/>
<path d="M218.529 13.8812C214.883 10.0898 209.34 8.84448 204.095 8.45151C198.85 8.05854 193.477 8.32065 188.447 6.78394" stroke="#171717" stroke-width="3.081" stroke-linecap="round" stroke-linejoin="round"/>
<path d="M21.0288 199.602L17.6304 195.355" stroke="#171717" stroke-width="3.081" stroke-linecap="round" stroke-linejoin="round"/>
<path d="M16.3564 199.603L20.1791 195.78" stroke="#171717" stroke-width="3.081" stroke-linecap="round" stroke-linejoin="round"/>
<path d="M21.4534 224.662L18.0549 222.113" stroke="#171717" stroke-width="3.081" stroke-linecap="round" stroke-linejoin="round"/>
<path d="M17.6309 225.086L20.1793 221.263" stroke="#171717" stroke-width="3.081" stroke-linecap="round" stroke-linejoin="round"/>
<path d="M173.534 124.698L171.685 119.746" stroke="#171717" stroke-width="3.081" stroke-linecap="round" stroke-linejoin="round"/>
<path d="M152.839 124.283L156.931 121.009" stroke="#171717" stroke-width="3.081" stroke-linecap="round" stroke-linejoin="round"/>
<path d="M135.99 114.23L132.875 111.54" stroke="#171717" stroke-width="3.081" stroke-linecap="round" stroke-linejoin="round"/>
<path d="M156.174 98.2335L156.071 94.5515" stroke="#171717" stroke-width="3.081" stroke-linecap="round" stroke-linejoin="round"/>
<path d="M174.775 77.2804L173.898 73.8894" stroke="#171717" stroke-width="3.081" stroke-linecap="round" stroke-linejoin="round"/>
<path d="M186.092 88.0105L190.292 85.4714L189.932 85.6332" stroke="#171717" stroke-width="3.081" stroke-linecap="round" stroke-linejoin="round"/>
<path d="M179.986 105.395L183.95 102.988" stroke="#171717" stroke-width="3.081" stroke-linecap="round" stroke-linejoin="round"/>
<path d="M207.205 114.23L204.231 110.691" stroke="#171717" stroke-width="3.081" stroke-linecap="round" stroke-linejoin="round"/>
<path d="M95.747 32.4167C96.5212 34.4917 96.6552 36.7511 96.1321 38.9027C95.6087 41.0546 94.4524 43.0003 92.8122 44.4882C91.172 45.9765 89.1235 46.9386 86.931 47.2503C84.7384 47.5621 82.5028 47.2093 80.5126 46.2378C78.4681 45.2394 76.6536 43.4117 76.4071 41.1496C76.1606 38.8875 78.0583 36.4167 80.3192 36.6707C82.1024 36.8707 83.3661 38.539 83.9954 40.2199C84.7626 42.2718 84.9106 44.5039 84.4204 46.639C83.9306 48.7746 82.8247 50.7187 81.2399 52.2312C79.6552 53.7437 77.661 54.7578 75.5052 55.1472C73.3493 55.5371 71.1267 55.2851 69.1126 54.423C64.9657 52.6468 62.3317 48.6273 59.4392 45.1652C56.5466 41.7031 52.5212 38.4019 48.0501 39.0046C45.1884 39.3906 42.7314 41.3789 41.1575 43.7996C39.5837 46.2203 38.7747 49.0511 38.1079 51.8605" stroke="#171717" stroke-width="3.081" stroke-linecap="round" stroke-linejoin="round"/>
<path d="M255.274 23.0899L257.856 25.2774C257.934 25.3434 257.99 25.4317 258.016 25.5301C258.042 25.6289 258.038 25.7332 258.003 25.8293C257.968 25.925 257.904 26.0082 257.821 26.0672C257.738 26.1258 257.638 26.1578 257.536 26.1586L254.152 26.1758C254.053 26.1762 253.957 26.2063 253.875 26.2621C253.793 26.3176 253.729 26.3961 253.692 26.4883L252.41 29.6176C252.372 29.7121 252.305 29.7926 252.219 29.8481C252.133 29.9035 252.032 29.9313 251.93 29.9277C251.828 29.9242 251.729 29.8895 251.648 29.8281C251.566 29.7668 251.505 29.682 251.473 29.5852L250.411 26.3723C250.38 26.2781 250.322 26.1957 250.244 26.1352C250.166 26.0742 250.072 26.0379 249.973 26.0305L246.598 25.7793C246.497 25.7715 246.4 25.7328 246.321 25.6684C246.241 25.6039 246.184 25.5164 246.156 25.4184C246.128 25.3203 246.13 25.216 246.163 25.1192C246.196 25.0227 246.258 24.9383 246.34 24.8781L249.068 22.875C249.147 22.8164 249.208 22.7356 249.241 22.643C249.275 22.55 249.281 22.4492 249.257 22.3535L248.454 19.0664C248.429 18.9672 248.436 18.8629 248.473 18.7676C248.51 18.6723 248.575 18.5906 248.659 18.5336C248.744 18.4766 248.844 18.4465 248.947 18.4481C249.048 18.4496 249.148 18.4824 249.231 18.5422L251.979 20.516C252.059 20.5734 252.155 20.6059 252.253 20.6094C252.352 20.6129 252.449 20.5867 252.533 20.5352L255.411 18.7551C255.498 18.7012 255.6 18.6754 255.702 18.6809C255.804 18.6867 255.901 18.7231 255.982 18.7859C256.062 18.8488 256.122 18.9348 256.152 19.0324C256.182 19.1301 256.181 19.2344 256.15 19.332L255.121 22.5555C255.091 22.6496 255.089 22.7504 255.116 22.8457C255.144 22.9406 255.198 23.0258 255.274 23.0899Z" fill="#171717"/>
<g opacity="0.1">
<path d="M103.078 231.639C100.828 230.01 96.4761 231.817 94.4507 233.154C91.5753 234.998 89.4769 237.834 88.5546 241.123C86.6601 247.998 90.0234 255.417 96.1226 258.925C100.596 261.498 104.687 254.313 100.134 252.063C96.7187 250.376 94.3335 246.545 95.1726 242.662C95.6507 240.687 96.6644 238.881 98.1023 237.444C98.8206 236.669 99.6621 236.016 100.593 235.514C101.5 235.038 102.691 234.608 103.357 233.823C103.502 233.67 103.612 233.486 103.678 233.285C103.743 233.085 103.764 232.872 103.737 232.662C103.71 232.453 103.636 232.251 103.522 232.074C103.407 231.896 103.255 231.747 103.075 231.635L103.078 231.639Z" fill="#171717"/>
</g>
<g opacity="0.1">
<path d="M199.977 62.1705C192.353 62.3482 184.972 64.3393 177.867 67.0482C156.774 74.9768 139.125 90.0432 127.984 109.631C125.943 113.239 124.127 116.971 122.544 120.803C121.732 122.749 120.982 124.719 120.295 126.713C119.472 129.119 118.364 131.503 119.785 133.906C120.293 134.738 121.104 135.34 122.046 135.588C122.989 135.835 123.991 135.708 124.843 135.234C126.898 134.158 127.247 132.136 127.876 130.115C128.409 128.406 128.991 126.713 129.624 125.037C130.77 122.016 132.089 119.063 133.574 116.194C136.632 110.195 140.355 104.559 144.672 99.3916C153.688 88.6959 165.044 80.2182 177.861 74.6147C185.189 71.4029 192.997 69.5389 200.697 67.4936C203.623 66.7166 203.066 62.0986 199.977 62.1705Z" fill="#171717"/>
</g>
<g opacity="0.1">
<path d="M199.506 36.4422C199.163 41.0125 199.788 45.5438 200.245 50.0965C200.702 54.6492 201.276 59.2012 201.807 63.7508C201.984 65.2742 202.976 66.5535 204.627 66.5707C206.012 66.5852 207.627 65.2625 207.447 63.7508C206.89 59.0789 206.374 54.3996 205.745 49.7367C205.117 45.0883 204.68 40.4086 203.249 35.936C202.578 33.8406 199.668 34.3094 199.508 36.4438L199.506 36.4422Z" fill="#171717"/>
</g>
<g opacity="0.1">
<path d="M171.677 88.6723C169.964 90.4614 168.509 91.9082 167.804 94.4039C167.137 96.952 166.884 99.5907 167.055 102.22C167.145 104.76 167.533 107.281 168.211 109.732C168.974 112.302 169.927 115.214 172.533 116.286C174.256 116.995 175.63 115.252 175.801 113.797C176.035 111.788 174.32 109.763 173.613 107.917C172.799 105.897 172.299 103.764 172.132 101.592C172.031 99.5055 172.136 97.4141 172.444 95.3481C172.723 93.2727 172.483 91.1586 172.74 89.1125C172.809 88.5621 172.022 88.3118 171.677 88.6723H171.677Z" fill="#171717"/>
</g>
<g opacity="0.1">
<path d="M179.973 268.588C178.831 272.851 179.733 278.366 182.002 282.131C183.778 285.077 189.01 283.171 187.758 279.704C187.137 277.982 186.413 276.364 186.008 274.567C185.612 272.809 185.552 271.09 185.344 269.315C185.006 266.444 180.834 265.379 179.974 268.588H179.973Z" fill="#171717"/>
</g>
</g>
</svg>
